Latin-Mizra-Medium - Without Production Names.ufo
<glyph name="quotedbl" format="1">
  <advance width="301"/>
  <unicode hex="0022"/>
  <outline>
    <contour>
      <point x="262" y="314" type="line"/>
      <point x="262" y="405"/>
      <point x="263" y="471"/>
      <point x="274" y="549" type="curve"/>
      <point x="237" y="549"/>
      <point x="211" y="545"/>
      <point x="180" y="535" type="curve"/>
      <point x="180" y="375" type="line"/>
      <point x="201" y="356"/>
      <point x="220" y="336"/>
      <point x="238" y="314" type="curve"/>
    </contour>
    <contour>
      <point x="119" y="314" type="line"/>
      <point x="119" y="405"/>
      <point x="120" y="471"/>
      <point x="131" y="549" type="curve"/>
      <point x="94" y="549"/>
      <point x="68" y="545"/>
      <point x="37" y="535" type="curve"/>
      <point x="37" y="375" type="line"/>
      <point x="58" y="356"/>
      <point x="77" y="336"/>
      <point x="95" y="314" type="curve"/>
    </contour>
  </outline>
</glyph>
<glyph name="quotesingle" format="1">
  <advance width="157"/>
  <unicode hex="0027"/>
  <outline>
    <contour>
      <point x="119" y="314" type="line"/>
      <point x="119" y="404"/>
      <point x="120" y="471"/>
      <point x="131" y="549" type="curve"/>
      <point x="94" y="549"/>
      <point x="68" y="545"/>
      <point x="37" y="535" type="curve"/>
      <point x="37" y="375" type="line"/>
      <point x="58" y="356"/>
      <point x="77" y="336"/>
      <point x="95" y="314" type="curve"/>
    </contour>
  </outline>
</glyph>
<glyph name="hyphen" format="1">
  <advance width="416"/>
  <unicode hex="002D"/>
  <outline>
    <contour>
      <point x="89" y="141"/>
      <point x="153" y="150"/>
      <point x="213" y="150" type="curve" smooth="yes"/>
      <point x="263" y="150"/>
      <point x="312" y="149"/>
      <point x="368" y="145" type="curve"/>
      <point x="368" y="187"/>
      <point x="364" y="223"/>
      <point x="352" y="265" type="curve"/>
      <point x="326" y="255"/>
      <point x="262" y="246"/>
      <point x="202" y="246" type="curve" smooth="yes"/>
      <point x="152" y="246"/>
      <point x="103" y="247"/>
      <point x="48" y="251" type="curve"/>
      <point x="48" y="209"/>
      <point x="51" y="173"/>
      <point x="63" y="131" type="curve"/>
    </contour>
  </outline>
</glyph>
<glyph name="slash" format="1">
  <advance width="332"/>
  <unicode hex="002F"/>
  <outline>
    <contour>
      <point x="103" y="-87"/>
      <point x="119" y="-83"/>
      <point x="134" y="-78" type="curve"/>
      <point x="139" y="15"/>
      <point x="247" y="455"/>
      <point x="288" y="605" type="curve"/>
      <point x="272" y="610"/>
      <point x="258" y="614"/>
      <point x="245" y="614" type="curve" smooth="yes"/>
      <point x="229" y="614"/>
      <point x="212" y="610"/>
      <point x="197" y="605" type="curve"/>
      <point x="192" y="512"/>
      <point x="85" y="72"/>
      <point x="43" y="-78" type="curve"/>
      <point x="59" y="-83"/>
      <point x="74" y="-87"/>
      <point x="87" y="-87" type="curve" smooth="yes"/>
    </contour>
  </outline>
</glyph>
<glyph name="zero" format="1">
  <advance width="581"/>
  <unicode hex="0030"/>
  <outline>
    <contour>
      <point x="435" y="-11"/>
      <point x="550" y="108"/>
      <point x="550" y="278" type="curve" smooth="yes"/>
      <point x="550" y="431"/>
      <point x="456" y="533"/>
      <point x="318" y="533" type="curve" smooth="yes"/>
      <point x="150" y="533"/>
      <point x="32" y="416"/>
      <point x="32" y="250" type="curve" smooth="yes"/>
      <point x="32" y="93"/>
      <point x="128" y="-11"/>
      <point x="272" y="-11" type="curve" smooth="yes"/>
    </contour>
    <contour>
      <point x="201" y="78"/>
      <point x="144" y="157"/>
      <point x="144" y="276" type="curve" smooth="yes"/>
      <point x="144" y="389"/>
      <point x="211" y="471"/>
      <point x="303" y="471" type="curve"/>
      <point x="386" y="454"/>
      <point x="437" y="378"/>
      <point x="437" y="270" type="curve" smooth="yes"/>
      <point x="437" y="152"/>
      <point x="378" y="78"/>
      <point x="287" y="78" type="curve" smooth="yes"/>
    </contour>
  </outline>
</glyph>
<glyph name="three" format="1">
  <advance width="490"/>
  <unicode hex="0033"/>
  <outline>
    <contour>
      <point x="373" y="-11"/>
      <point x="453" y="47"/>
      <point x="453" y="155" type="curve" smooth="yes"/>
      <point x="453" y="238"/>
      <point x="386" y="300"/>
      <point x="290" y="307" type="curve"/>
      <point x="364" y="364" type="line" smooth="yes"/>
      <point x="418" y="405"/>
      <point x="439" y="436"/>
      <point x="439" y="476" type="curve" smooth="yes"/>
      <point x="439" y="505"/>
      <point x="425" y="532"/>
      <point x="402" y="546" type="curve"/>
      <point x="365" y="524"/>
      <point x="313" y="516"/>
      <point x="210" y="516" type="curve" smooth="yes"/>
      <point x="140" y="516"/>
      <point x="84" y="520"/>
      <point x="58" y="527" type="curve"/>
      <point x="58" y="488"/>
      <point x="67" y="439"/>
      <point x="81" y="406" type="curve"/>
      <point x="104" y="419"/>
      <point x="133" y="424"/>
      <point x="184" y="424" type="curve" smooth="yes"/>
      <point x="272" y="424"/>
      <point x="330" y="423"/>
      <point x="354" y="421" type="curve"/>
      <point x="180" y="287" type="line" smooth="yes"/>
      <point x="160" y="272"/>
      <point x="146" y="255"/>
      <point x="140" y="239" type="curve"/>
      <point x="140" y="230"/>
      <point x="165" y="215"/>
      <point x="181" y="215" type="curve"/>
      <point x="197" y="242"/>
      <point x="230" y="260"/>
      <point x="261" y="260" type="curve"/>
      <point x="309" y="243"/>
      <point x="337" y="204"/>
      <point x="337" y="155" type="curve" smooth="yes"/>
      <point x="337" y="91"/>
      <point x="291" y="54"/>
      <point x="212" y="54" type="curve" smooth="yes"/>
      <point x="147" y="54"/>
      <point x="87" y="77"/>
      <point x="54" y="115" type="curve"/>
      <point x="42" y="81"/>
      <point x="37" y="59"/>
      <point x="37" y="35" type="curve"/>
      <point x="88" y="5"/>
      <point x="152" y="-11"/>
      <point x="221" y="-11" type="curve" smooth="yes"/>
    </contour>
  </outline>
</glyph>
<glyph name="five" format="1">
  <advance width="478"/>
  <unicode hex="0035"/>
  <outline>
    <contour>
      <point x="364" y="-11"/>
      <point x="442" y="49"/>
      <point x="442" y="160" type="curve" smooth="yes"/>
      <point x="442" y="256"/>
      <point x="368" y="327"/>
      <point x="266" y="327" type="curve" smooth="yes"/>
      <point x="215" y="327"/>
      <point x="168" y="313"/>
      <point x="127" y="287" type="curve"/>
      <point x="136" y="421" type="line"/>
      <point x="204" y="423"/>
      <point x="242" y="424"/>
      <point x="291" y="424" type="curve" smooth="yes"/>
      <point x="347" y="424"/>
      <point x="376" y="419"/>
      <point x="398" y="406" type="curve"/>
      <point x="412" y="439"/>
      <point x="422" y="489"/>
      <point x="422" y="527" type="curve"/>
      <point x="391" y="520"/>
      <point x="320" y="516"/>
      <point x="239" y="516" type="curve" smooth="yes"/>
      <point x="162" y="516"/>
      <point x="120" y="519"/>
      <point x="93" y="527" type="curve"/>
      <point x="73" y="240" type="line"/>
      <point x="73" y="235"/>
      <point x="97" y="225"/>
      <point x="122" y="219" type="curve"/>
      <point x="170" y="251"/>
      <point x="219" y="270"/>
      <point x="250" y="270" type="curve"/>
      <point x="301" y="246"/>
      <point x="327" y="209"/>
      <point x="327" y="160" type="curve" smooth="yes"/>
      <point x="327" y="92"/>
      <point x="282" y="54"/>
      <point x="206" y="54" type="curve" smooth="yes"/>
      <point x="143" y="54"/>
      <point x="86" y="77"/>
      <point x="54" y="115" type="curve"/>
      <point x="42" y="88"/>
      <point x="37" y="66"/>
      <point x="37" y="35" type="curve"/>
      <point x="87" y="5"/>
      <point x="150" y="-11"/>
      <point x="216" y="-11" type="curve" smooth="yes"/>
    </contour>
  </outline>
</glyph>
<glyph name="eight" format="1">
  <advance width="521"/>
  <unicode hex="0038"/>
  <outline>
    <contour>
      <point x="383" y="-11"/>
      <point x="485" y="51"/>
      <point x="485" y="147" type="curve" smooth="yes"/>
      <point x="485" y="220"/>
      <point x="435" y="257"/>
      <point x="374" y="281" type="curve"/>
      <point x="433" y="310"/>
      <point x="468" y="353"/>
      <point x="468" y="402" type="curve" smooth="yes"/>
      <point x="468" y="481"/>
      <point x="393" y="533"/>
      <point x="282" y="533" type="curve" smooth="yes"/>
      <point x="148" y="533"/>
      <point x="54" y="472"/>
      <point x="54" y="385" type="curve" smooth="yes"/>
      <point x="54" y="317"/>
      <point x="93" y="278"/>
      <point x="144" y="252" type="curve"/>
      <point x="77" y="221"/>
      <point x="37" y="175"/>
      <point x="37" y="121" type="curve" smooth="yes"/>
      <point x="37" y="42"/>
      <point x="121" y="-11"/>
      <point x="245" y="-11" type="curve" smooth="yes"/>
    </contour>
    <contour>
      <point x="195" y="50"/>
      <point x="152" y="84"/>
      <point x="152" y="133" type="curve" smooth="yes"/>
      <point x="152" y="171"/>
      <point x="172" y="202"/>
      <point x="208" y="224" type="curve"/>
      <point x="288" y="196"/>
      <point x="369" y="180"/>
      <point x="369" y="126" type="curve" smooth="yes"/>
      <point x="369" y="80"/>
      <point x="327" y="50"/>
      <point x="258" y="50" type="curve" smooth="yes"/>
    </contour>
    <contour>
      <point x="232" y="329"/>
      <point x="163" y="348"/>
      <point x="163" y="404" type="curve" smooth="yes"/>
      <point x="163" y="450"/>
      <point x="208" y="478"/>
      <point x="271" y="478" type="curve"/>
      <point x="325" y="468"/>
      <point x="358" y="437"/>
      <point x="358" y="393" type="curve" smooth="yes"/>
      <point x="358" y="357"/>
      <point x="339" y="327"/>
      <point x="306" y="306" type="curve"/>
    </contour>
  </outline>
</glyph>
<glyph name="A" format="1">
  <advance width="525"/>
  <unicode hex="0041"/>
  <outline>
    <contour>
      <point x="476" y="-5"/>
      <point x="498" y="-3"/>
      <point x="520" y="2" type="curve"/>
      <point x="479" y="75"/>
      <point x="354" y="411"/>
      <point x="315" y="529" type="curve"/>
      <point x="281" y="535"/>
      <point x="247" y="535"/>
      <point x="209" y="529" type="curve"/>
      <point x="170" y="411"/>
      <point x="45" y="75"/>
      <point x="4" y="2" type="curve"/>
      <point x="19" y="-2"/>
      <point x="34" y="-4"/>
      <point x="49" y="-4" type="curve" smooth="yes"/>
      <point x="60" y="-4"/>
      <point x="73" y="-2"/>
      <point x="88" y="2" type="curve"/>
      <point x="97" y="31"/>
      <point x="113" y="76"/>
      <point x="132" y="126" type="curve"/>
      <point x="153" y="130"/>
      <point x="186" y="131"/>
      <point x="229" y="131" type="curve" smooth="yes"/>
      <point x="267" y="131"/>
      <point x="310" y="130"/>
      <point x="346" y="127" type="curve"/>
      <point x="364" y="76"/>
      <point x="380" y="31"/>
      <point x="390" y="2" type="curve"/>
      <point x="415" y="-3"/>
      <point x="436" y="-5"/>
      <point x="455" y="-5" type="curve" smooth="yes"/>
    </contour>
    <contour>
      <point x="233" y="196"/>
      <point x="192" y="197"/>
      <point x="159" y="199" type="curve"/>
      <point x="187" y="274"/>
      <point x="216" y="352"/>
      <point x="239" y="406" type="curve"/>
      <point x="260" y="357"/>
      <point x="291" y="277"/>
      <point x="320" y="198" type="curve"/>
      <point x="305" y="197"/>
      <point x="287" y="196"/>
      <point x="268" y="196" type="curve" smooth="yes"/>
    </contour>
    <contour>
      <point x="520" y="2" type="move" name="ogonek"/>
    </contour>
    <contour>
      <point x="263" y="0" type="move" name="bottom"/>
    </contour>
    <contour>
      <point x="263" y="527" type="move" name="top"/>
    </contour>
  </outline>
</glyph>
<glyph name="H" format="1">
  <advance width="561"/>
  <unicode hex="0048"/>
  <outline>
    <contour>
      <point x="150" y="-6"/>
      <point x="172" y="-4"/>
      <point x="192" y="0" type="curve"/>
      <point x="182" y="29"/>
      <point x="176" y="103"/>
      <point x="176" y="228" type="curve"/>
      <point x="200" y="229"/>
      <point x="229" y="230"/>
      <point x="262" y="230" type="curve" smooth="yes"/>
      <point x="301" y="230"/>
      <point x="345" y="229"/>
      <point x="383" y="227" type="curve"/>
      <point x="382" y="142"/>
      <point x="378" y="51"/>
      <point x="373" y="0" type="curve"/>
      <point x="399" y="-4"/>
      <point x="422" y="-6"/>
      <point x="443" y="-6" type="curve" smooth="yes"/>
      <point x="463" y="-6"/>
      <point x="485" y="-4"/>
      <point x="506" y="0" type="curve"/>
      <point x="495" y="30"/>
      <point x="490" y="109"/>
      <point x="490" y="230" type="curve" smooth="yes"/>
      <point x="490" y="331"/>
      <point x="495" y="458"/>
      <point x="501" y="527" type="curve"/>
      <point x="476" y="531"/>
      <point x="454" y="533"/>
      <point x="435" y="533" type="curve" smooth="yes"/>
      <point x="412" y="533"/>
      <point x="389" y="531"/>
      <point x="368" y="527" type="curve"/>
      <point x="379" y="498"/>
      <point x="384" y="424"/>
      <point x="384" y="299" type="curve"/>
      <point x="363" y="298"/>
      <point x="339" y="297"/>
      <point x="310" y="297" type="curve" smooth="yes"/>
      <point x="267" y="297"/>
      <point x="218" y="298"/>
      <point x="177" y="301" type="curve"/>
      <point x="179" y="385"/>
      <point x="183" y="475"/>
      <point x="187" y="527" type="curve"/>
      <point x="162" y="531"/>
      <point x="141" y="533"/>
      <point x="121" y="533" type="curve" smooth="yes"/>
      <point x="99" y="533"/>
      <point x="76" y="531"/>
      <point x="55" y="527" type="curve"/>
      <point x="66" y="497"/>
      <point x="71" y="418"/>
      <point x="71" y="297" type="curve" smooth="yes"/>
      <point x="71" y="196"/>
      <point x="66" y="69"/>
      <point x="60" y="0" type="curve"/>
      <point x="86" y="-4"/>
      <point x="109" y="-6"/>
      <point x="129" y="-6" type="curve" smooth="yes"/>
    </contour>
    <contour>
      <point x="280" y="414" type="move" name="center"/>
    </contour>
    <contour>
      <point x="280" y="527" type="move" name="top"/>
    </contour>
    <contour>
      <point x="18" y="527" type="move" name="topleft"/>
    </contour>
    <contour>
      <point x="280" y="0" type="move" name="bottom"/>
    </contour>
  </outline>
</glyph>
<glyph name="P" format="1">
  <advance width="490"/>
  <unicode hex="0050"/>
  <outline>
    <contour>
      <point x="150" y="-6"/>
      <point x="172" y="-4"/>
      <point x="192" y="0" type="curve"/>
      <point x="183" y="25"/>
      <point x="178" y="81"/>
      <point x="177" y="165" type="curve"/>
      <point x="197" y="162"/>
      <point x="219" y="160"/>
      <point x="241" y="160" type="curve" smooth="yes"/>
      <point x="374" y="160"/>
      <point x="466" y="240"/>
      <point x="466" y="356" type="curve" smooth="yes"/>
      <point x="466" y="469"/>
      <point x="390" y="532"/>
      <point x="251" y="532" type="curve" smooth="yes"/>
      <point x="177" y="532"/>
      <point x="98" y="521"/>
      <point x="55" y="505" type="curve"/>
      <point x="66" y="478"/>
      <point x="71" y="406"/>
      <point x="71" y="297" type="curve" smooth="yes"/>
      <point x="71" y="194"/>
      <point x="66" y="65"/>
      <point x="60" y="0" type="curve"/>
      <point x="86" y="-4"/>
      <point x="109" y="-6"/>
      <point x="129" y="-6" type="curve" smooth="yes"/>
    </contour>
    <contour>
      <point x="254" y="221"/>
      <point x="216" y="229"/>
      <point x="176" y="241" type="curve"/>
      <point x="176" y="312"/>
      <point x="179" y="391"/>
      <point x="183" y="451" type="curve"/>
      <point x="198" y="456"/>
      <point x="214" y="457"/>
      <point x="230" y="457" type="curve" smooth="yes"/>
      <point x="307" y="457"/>
      <point x="351" y="424"/>
      <point x="351" y="348" type="curve" smooth="yes"/>
      <point x="351" y="289"/>
      <point x="318" y="241"/>
      <point x="278" y="221" type="curve"/>
    </contour>
    <contour>
      <point x="247" y="527" type="move" name="top"/>
    </contour>
    <contour>
      <point x="247" y="0" type="move" name="bottom"/>
    </contour>
  </outline>
</glyph>
<glyph name="S" format="1">
  <advance width="457"/>
  <unicode hex="0053"/>
  <outline>
    <contour>
      <point x="356" y="-11"/>
      <point x="424" y="45"/>
      <point x="424" y="140" type="curve" smooth="yes"/>
      <point x="424" y="310"/>
      <point x="153" y="305"/>
      <point x="153" y="410" type="curve" smooth="yes"/>
      <point x="153" y="444"/>
      <point x="183" y="465"/>
      <point x="204" y="470" type="curve"/>
      <point x="245" y="470"/>
      <point x="312" y="437"/>
      <point x="368" y="395" type="curve"/>
      <point x="387" y="421"/>
      <point x="404" y="474"/>
      <point x="404" y="509" type="curve"/>
      <point x="361" y="525"/>
      <point x="308" y="533"/>
      <point x="249" y="533" type="curve" smooth="yes"/>
      <point x="120" y="533"/>
      <point x="38" y="475"/>
      <point x="38" y="392" type="curve" smooth="yes"/>
      <point x="38" y="222"/>
      <point x="310" y="220"/>
      <point x="310" y="122" type="curve" smooth="yes"/>
      <point x="310" y="79"/>
      <point x="274" y="54"/>
      <point x="209" y="54" type="curve" smooth="yes"/>
      <point x="143" y="54"/>
      <point x="83" y="73"/>
      <point x="50" y="105" type="curve"/>
      <point x="38" y="80"/>
      <point x="33" y="58"/>
      <point x="33" y="25" type="curve"/>
      <point x="80" y="3"/>
      <point x="142" y="-11"/>
      <point x="216" y="-11" type="curve" smooth="yes"/>
    </contour>
    <contour>
      <point x="222" y="527" type="move" name="top"/>
    </contour>
    <contour>
      <point x="222" y="0" type="move" name="bottom"/>
    </contour>
  </outline>
</glyph>
<glyph name="T" format="1">
  <advance width="449"/>
  <unicode hex="0054"/>
  <outline>
    <contour>
      <point x="252" y="-6"/>
      <point x="275" y="-4"/>
      <point x="293" y="0" type="curve"/>
      <point x="282" y="30"/>
      <point x="277" y="104"/>
      <point x="277" y="227" type="curve" smooth="yes"/>
      <point x="277" y="293"/>
      <point x="280" y="371"/>
      <point x="283" y="434" type="curve"/>
      <point x="342" y="432"/>
      <point x="400" y="429"/>
      <point x="436" y="426" type="curve"/>
      <point x="439" y="444"/>
      <point x="441" y="463"/>
      <point x="441" y="479" type="curve" smooth="yes"/>
      <point x="441" y="495"/>
      <point x="439" y="512"/>
      <point x="436" y="530" type="curve"/>
      <point x="412" y="521"/>
      <point x="352" y="517"/>
      <point x="253" y="517" type="curve" smooth="yes"/>
      <point x="170" y="517"/>
      <point x="66" y="521"/>
      <point x="13" y="526" type="curve"/>
      <point x="10" y="508"/>
      <point x="8" y="492"/>
      <point x="8" y="476" type="curve" smooth="yes"/>
      <point x="8" y="459"/>
      <point x="10" y="441"/>
      <point x="13" y="422" type="curve"/>
      <point x="35" y="429"/>
      <point x="85" y="434"/>
      <point x="168" y="435" type="curve"/>
      <point x="170" y="401"/>
      <point x="172" y="356"/>
      <point x="172" y="300" type="curve" smooth="yes"/>
      <point x="172" y="198"/>
      <point x="167" y="67"/>
      <point x="161" y="0" type="curve"/>
      <point x="187" y="-4"/>
      <point x="209" y="-6"/>
      <point x="228" y="-6" type="curve" smooth="yes"/>
    </contour>
    <contour>
      <point x="225" y="264" type="move" name="center"/>
    </contour>
    <contour>
      <point x="225" y="0" type="move" name="bottom"/>
    </contour>
    <contour>
      <point x="225" y="527" type="move" name="top"/>
    </contour>
  </outline>
</glyph>
<glyph name="V" format="1">
  <advance width="508"/>
  <unicode hex="0056"/>
  <outline>
    <contour>
      <point x="340" y="27" type="line"/>
      <point x="381" y="168"/>
      <point x="459" y="409"/>
      <point x="503" y="533" type="curve"/>
      <point x="464" y="533"/>
      <point x="435" y="530"/>
      <point x="403" y="522" type="curve"/>
      <point x="415" y="488"/>
      <point x="381" y="355"/>
      <point x="290" y="81" type="curve"/>
      <point x="271" y="114"/>
      <point x="247" y="169"/>
      <point x="216" y="260" type="curve" smooth="yes"/>
      <point x="187" y="350"/>
      <point x="157" y="471"/>
      <point x="147" y="533" type="curve"/>
      <point x="91" y="533"/>
      <point x="48" y="526"/>
      <point x="5" y="512" type="curve"/>
      <point x="131" y="264"/>
      <point x="147" y="-9"/>
      <point x="256" y="-9" type="curve"/>
    </contour>
    <contour>
      <point x="254" y="527" type="move" name="top"/>
    </contour>
    <contour>
      <point x="254" y="0" type="move" name="bottom"/>
    </contour>
  </outline>
</glyph>
<glyph name="bracketleft" format="1">
  <advance width="355"/>
  <unicode hex="005B"/>
  <outline>
    <contour>
      <point x="323" y="-106"/>
      <point x="325" y="-89"/>
      <point x="325" y="-73" type="curve" smooth="yes"/>
      <point x="325" y="-57"/>
      <point x="323" y="-38"/>
      <point x="320" y="-20" type="curve"/>
      <point x="288" y="-23"/>
      <point x="236" y="-26"/>
      <point x="183" y="-27" type="curve"/>
      <point x="176" y="36"/>
      <point x="173" y="129"/>
      <point x="173" y="290" type="curve" smooth="yes"/>
      <point x="173" y="353"/>
      <point x="176" y="471"/>
      <point x="180" y="555" type="curve"/>
      <point x="231" y="554"/>
      <point x="280" y="551"/>
      <point x="312" y="548" type="curve"/>
      <point x="315" y="566"/>
      <point x="317" y="585"/>
      <point x="317" y="601" type="curve" smooth="yes"/>
      <point x="317" y="617"/>
      <point x="315" y="634"/>
      <point x="312" y="652" type="curve"/>
      <point x="290" y="645"/>
      <point x="237" y="639"/>
      <point x="151" y="639" type="curve" smooth="yes"/>
      <point x="118" y="639"/>
      <point x="84" y="640"/>
      <point x="55" y="643" type="curve"/>
      <point x="66" y="584"/>
      <point x="71" y="495"/>
      <point x="71" y="290" type="curve" smooth="yes"/>
      <point x="71" y="192"/>
      <point x="66" y="-27"/>
      <point x="60" y="-117" type="curve"/>
      <point x="98" y="-113"/>
      <point x="130" y="-111"/>
      <point x="159" y="-111" type="curve" smooth="yes"/>
      <point x="245" y="-111"/>
      <point x="298" y="-117"/>
      <point x="320" y="-124" type="curve"/>
    </contour>
  </outline>
</glyph>
<glyph name="asciicircum" format="1">
  <advance width="380"/>
  <unicode hex="005E"/>
  <outline>
    <contour>
      <point x="190" y="499" type="line"/>
      <point x="303" y="356" type="line"/>
      <point x="329" y="372"/>
      <point x="347" y="389"/>
      <point x="370" y="419" type="curve"/>
      <point x="312" y="476"/>
      <point x="265" y="526"/>
      <point x="205" y="600" type="curve"/>
      <point x="175" y="600" type="line"/>
      <point x="115" y="526"/>
      <point x="68" y="476"/>
      <point x="10" y="419" type="curve"/>
      <point x="33" y="389"/>
      <point x="51" y="372"/>
      <point x="77" y="356" type="curve"/>
    </contour>
  </outline>
</glyph>
<glyph name="a" format="1">
  <advance width="437"/>
  <unicode hex="0061"/>
  <outline>
    <contour>
      <point x="168" y="-11"/>
      <point x="222" y="9"/>
      <point x="268" y="41" type="curve"/>
      <point x="276" y="19"/>
      <point x="288" y="2"/>
      <point x="307" y="-11" type="curve"/>
      <point x="342" y="-7"/>
      <point x="376" y="7"/>
      <point x="403" y="27" type="curve"/>
      <point x="372" y="60"/>
      <point x="364" y="82"/>
      <point x="364" y="132" type="curve" smooth="yes"/>
      <point x="364" y="179"/>
      <point x="373" y="231"/>
      <point x="373" y="284" type="curve" smooth="yes"/>
      <point x="373" y="370"/>
      <point x="322" y="418"/>
      <point x="229" y="418" type="curve" smooth="yes"/>
      <point x="161" y="418"/>
      <point x="91" y="378"/>
      <point x="52" y="319" type="curve"/>
      <point x="60" y="280" type="line"/>
      <point x="94" y="303"/>
      <point x="141" y="317"/>
      <point x="184" y="317" type="curve" smooth="yes"/>
      <point x="245" y="317"/>
      <point x="266" y="291"/>
      <point x="268" y="223" type="curve"/>
      <point x="110" y="212"/>
      <point x="33" y="166"/>
      <point x="33" y="83" type="curve" smooth="yes"/>
      <point x="33" y="28"/>
      <point x="68" y="-11"/>
      <point x="125" y="-11" type="curve" smooth="yes"/>
    </contour>
    <contour>
      <point x="157" y="58"/>
      <point x="145" y="81"/>
      <point x="145" y="101" type="curve" smooth="yes"/>
      <point x="145" y="148"/>
      <point x="189" y="178"/>
      <point x="268" y="184" type="curve"/>
      <point x="266" y="147"/>
      <point x="262" y="124"/>
      <point x="262" y="90" type="curve" smooth="yes"/>
      <point x="262" y="83" type="line"/>
      <point x="236" y="64"/>
      <point x="202" y="50"/>
      <point x="174" y="47" type="curve"/>
    </contour>
    <contour>
      <point x="355" y="1" type="move" name="ogonek"/>
    </contour>
    <contour>
      <point x="218" y="0" type="move" name="bottom"/>
    </contour>
    <contour>
      <point x="218" y="407" type="move" name="top"/>
    </contour>
  </outline>
</glyph>
<glyph name="c" format="1">
  <advance width="406"/>
  <unicode hex="0063"/>
  <outline>
    <contour>
      <point x="277" y="-11"/>
      <point x="345" y="24"/>
      <point x="383" y="75" type="curve"/>
      <point x="375" y="117" type="line"/>
      <point x="344" y="93"/>
      <point x="301" y="80"/>
      <point x="254" y="80" type="curve" smooth="yes"/>
      <point x="176" y="80"/>
      <point x="144" y="124"/>
      <point x="144" y="217" type="curve" smooth="yes"/>
      <point x="144" y="279"/>
      <point x="170" y="334"/>
      <point x="206" y="356" type="curve"/>
      <point x="237" y="356"/>
      <point x="287" y="330"/>
      <point x="338" y="285" type="curve"/>
      <point x="354" y="316"/>
      <point x="369" y="367"/>
      <point x="369" y="394" type="curve"/>
      <point x="330" y="413"/>
      <point x="288" y="418"/>
      <point x="253" y="418" type="curve" smooth="yes"/>
      <point x="123" y="418"/>
      <point x="33" y="325"/>
      <point x="33" y="191" type="curve" smooth="yes"/>
      <point x="33" y="61"/>
      <point x="98" y="-11"/>
      <point x="213" y="-11" type="curve" smooth="yes"/>
    </contour>
    <contour>
      <point x="212" y="407" type="move" name="top"/>
    </contour>
    <contour>
      <point x="202" y="0" type="move" name="bottom"/>
    </contour>
  </outline>
</glyph>
<glyph name="e" format="1">
  <advance width="463"/>
  <unicode hex="0065"/>
  <outline>
    <contour>
      <point x="288" y="-11"/>
      <point x="366" y="25"/>
      <point x="408" y="78" type="curve"/>
      <point x="398" y="117" type="line"/>
      <point x="361" y="93"/>
      <point x="310" y="79"/>
      <point x="254" y="79" type="curve" smooth="yes"/>
      <point x="191" y="79"/>
      <point x="158" y="108"/>
      <point x="148" y="172" type="curve"/>
      <point x="247" y="175"/>
      <point x="353" y="189"/>
      <point x="423" y="206" type="curve"/>
      <point x="423" y="345"/>
      <point x="365" y="418"/>
      <point x="253" y="418" type="curve" smooth="yes"/>
      <point x="124" y="418"/>
      <point x="35" y="325"/>
      <point x="35" y="191" type="curve" smooth="yes"/>
      <point x="35" y="61"/>
      <point x="99" y="-11"/>
      <point x="213" y="-11" type="curve" smooth="yes"/>
    </contour>
    <contour>
      <point x="144" y="281"/>
      <point x="168" y="339"/>
      <point x="206" y="362" type="curve"/>
      <point x="261" y="362"/>
      <point x="300" y="315"/>
      <point x="302" y="252" type="curve"/>
      <point x="266" y="235"/>
      <point x="202" y="220"/>
      <point x="144" y="214" type="curve"/>
    </contour>
    <contour>
      <point x="315" y="11" type="move" name="ogonek"/>
    </contour>
    <contour>
      <point x="225" y="0" type="move" name="bottom"/>
    </contour>
    <contour>
      <point x="235" y="407" type="move" name="top"/>
    </contour>
  </outline>
</glyph>
<glyph name="h" format="1">
  <advance width="488"/>
  <unicode hex="0068"/>
  <outline>
    <contour>
      <point x="144" y="-6"/>
      <point x="166" y="-4"/>
      <point x="187" y="0" type="curve"/>
      <point x="173" y="30"/>
      <point x="166" y="105"/>
      <point x="166" y="224" type="curve" smooth="yes"/>
      <point x="166" y="246"/>
      <point x="167" y="274"/>
      <point x="168" y="293" type="curve"/>
      <point x="191" y="309"/>
      <point x="215" y="317"/>
      <point x="247" y="317" type="curve" smooth="yes"/>
      <point x="292" y="317"/>
      <point x="311" y="295"/>
      <point x="311" y="242" type="curve" smooth="yes"/>
      <point x="311" y="164"/>
      <point x="308" y="70"/>
      <point x="304" y="0" type="curve"/>
      <point x="327" y="-4"/>
      <point x="350" y="-6"/>
      <point x="369" y="-6" type="curve" smooth="yes"/>
      <point x="391" y="-6"/>
      <point x="418" y="-4"/>
      <point x="437" y="0" type="curve"/>
      <point x="424" y="29"/>
      <point x="417" y="82"/>
      <point x="417" y="150" type="curve" smooth="yes"/>
      <point x="417" y="181"/>
      <point x="421" y="251"/>
      <point x="421" y="280" type="curve" smooth="yes"/>
      <point x="421" y="369"/>
      <point x="385" y="418"/>
      <point x="304" y="418" type="curve" smooth="yes"/>
      <point x="253" y="418"/>
      <point x="204" y="394"/>
      <point x="169" y="354" type="curve"/>
      <point x="171" y="430"/>
      <point x="176" y="502"/>
      <point x="182" y="547" type="curve"/>
      <point x="131" y="547"/>
      <point x="92" y="541"/>
      <point x="52" y="527" type="curve"/>
      <point x="58" y="468"/>
      <point x="62" y="367"/>
      <point x="62" y="255" type="curve" smooth="yes"/>
      <point x="62" y="171"/>
      <point x="59" y="73"/>
      <point x="55" y="0" type="curve"/>
      <point x="81" y="-4"/>
      <point x="103" y="-6"/>
      <point x="123" y="-6" type="curve" smooth="yes"/>
    </contour>
    <contour>
      <point x="127" y="470" type="move" name="center"/>
    </contour>
    <contour>
      <point x="244" y="0" type="move" name="bottom"/>
    </contour>
    <contour>
      <point x="244" y="407" type="move" name="top"/>
    </contour>
  </outline>
</glyph>
<glyph name="l" format="1">
  <advance width="242"/>
  <unicode hex="006C"/>
  <outline>
    <contour>
      <point x="150" y="-9"/>
      <point x="183" y="0"/>
      <point x="209" y="27" type="curve"/>
      <point x="178" y="61"/>
      <point x="170" y="84"/>
      <point x="170" y="192" type="curve" smooth="yes"/>
      <point x="170" y="356"/>
      <point x="175" y="485"/>
      <point x="182" y="547" type="curve"/>
      <point x="137" y="547"/>
      <point x="98" y="543"/>
      <point x="52" y="527" type="curve"/>
      <point x="65" y="480"/>
      <point x="71" y="406"/>
      <point x="71" y="297" type="curve" smooth="yes"/>
      <point x="71" y="208"/>
      <point x="67" y="144"/>
      <point x="67" y="73" type="curve" smooth="yes"/>
      <point x="67" y="10"/>
      <point x="85" y="-9"/>
      <point x="131" y="-9" type="curve" smooth="yes"/>
    </contour>
    <contour>
      <point x="124" y="280" type="move" name="center"/>
    </contour>
    <contour>
      <point x="124" y="527" type="move" name="top"/>
    </contour>
    <contour>
      <point x="273" y="407" type="move" name="topright"/>
    </contour>
    <contour>
      <point x="124" y="0" type="move" name="bottom"/>
    </contour>
  </outline>
</glyph>
<glyph name="m" format="1">
  <advance width="758"/>
  <unicode hex="006D"/>
  <outline>
    <contour>
      <point x="175" y="-6"/>
      <point x="197" y="-4"/>
      <point x="216" y="0" type="curve"/>
      <point x="203" y="29"/>
      <point x="196" y="82"/>
      <point x="196" y="150" type="curve" smooth="yes"/>
      <point x="196" y="208"/>
      <point x="199" y="257"/>
      <point x="200" y="296" type="curve"/>
      <point x="220" y="310"/>
      <point x="242" y="317"/>
      <point x="271" y="317" type="curve" smooth="yes"/>
      <point x="317" y="317"/>
      <point x="336" y="295"/>
      <point x="336" y="242" type="curve" smooth="yes"/>
      <point x="336" y="156"/>
      <point x="333" y="63"/>
      <point x="329" y="0" type="curve"/>
      <point x="352" y="-4"/>
      <point x="374" y="-6"/>
      <point x="393" y="-6" type="curve" smooth="yes"/>
      <point x="416" y="-6"/>
      <point x="442" y="-4"/>
      <point x="461" y="0" type="curve"/>
      <point x="448" y="29"/>
      <point x="441" y="82"/>
      <point x="441" y="150" type="curve" smooth="yes"/>
      <point x="441" y="183"/>
      <point x="444" y="252"/>
      <point x="445" y="297" type="curve"/>
      <point x="465" y="310"/>
      <point x="488" y="317"/>
      <point x="516" y="317" type="curve" smooth="yes"/>
      <point x="562" y="317"/>
      <point x="581" y="295"/>
      <point x="581" y="242" type="curve" smooth="yes"/>
      <point x="581" y="156"/>
      <point x="578" y="63"/>
      <point x="574" y="0" type="curve"/>
      <point x="597" y="-4"/>
      <point x="619" y="-6"/>
      <point x="638" y="-6" type="curve" smooth="yes"/>
      <point x="661" y="-6"/>
      <point x="687" y="-4"/>
      <point x="706" y="0" type="curve"/>
      <point x="693" y="29"/>
      <point x="686" y="82"/>
      <point x="686" y="150" type="curve" smooth="yes"/>
      <point x="686" y="181"/>
      <point x="690" y="251"/>
      <point x="690" y="280" type="curve" smooth="yes"/>
      <point x="690" y="362"/>
      <point x="659" y="418"/>
      <point x="570" y="418" type="curve" smooth="yes"/>
      <point x="518" y="418"/>
      <point x="470" y="391"/>
      <point x="436" y="346" type="curve"/>
      <point x="421" y="391"/>
      <point x="387" y="418"/>
      <point x="325" y="418" type="curve" smooth="yes"/>
      <point x="277" y="418"/>
      <point x="232" y="394"/>
      <point x="198" y="356" type="curve"/>
      <point x="193" y="392"/>
      <point x="174" y="414"/>
      <point x="134" y="414" type="curve" smooth="yes"/>
      <point x="114" y="414"/>
      <point x="79" y="405"/>
      <point x="52" y="378" type="curve"/>
      <point x="83" y="344"/>
      <point x="91" y="321"/>
      <point x="91" y="213" type="curve" smooth="yes"/>
      <point x="91" y="139"/>
      <point x="88" y="57"/>
      <point x="84" y="0" type="curve"/>
      <point x="107" y="-4"/>
      <point x="134" y="-6"/>
      <point x="155" y="-6" type="curve" smooth="yes"/>
    </contour>
    <contour>
      <point x="380" y="407" type="move" name="top"/>
    </contour>
    <contour>
      <point x="380" y="0" type="move" name="bottom"/>
    </contour>
  </outline>
</glyph>
<glyph name="o" format="1">
  <advance width="496"/>
  <unicode hex="006F"/>
  <outline>
    <contour>
      <point x="365" y="-11"/>
      <point x="461" y="82"/>
      <point x="461" y="215" type="curve" smooth="yes"/>
      <point x="461" y="337"/>
      <point x="382" y="418"/>
      <point x="263" y="418" type="curve" smooth="yes"/>
      <point x="129" y="418"/>
      <point x="35" y="325"/>
      <point x="35" y="192" type="curve" smooth="yes"/>
      <point x="35" y="70"/>
      <point x="113" y="-11"/>
      <point x="228" y="-11" type="curve" smooth="yes"/>
    </contour>
    <contour>
      <point x="184" y="41"/>
      <point x="140" y="97"/>
      <point x="140" y="190" type="curve" smooth="yes"/>
      <point x="140" y="273"/>
      <point x="185" y="326"/>
      <point x="257" y="326" type="curve"/>
      <point x="319" y="306"/>
      <point x="356" y="249"/>
      <point x="356" y="175" type="curve" smooth="yes"/>
      <point x="356" y="90"/>
      <point x="315" y="41"/>
      <point x="245" y="41" type="curve" smooth="yes"/>
    </contour>
    <contour>
      <point x="249" y="204" type="move" name="center"/>
    </contour>
    <contour>
      <point x="447" y="10" type="move" name="ogonek"/>
    </contour>
    <contour>
      <point x="249" y="407" type="move" name="top"/>
    </contour>
    <contour>
      <point x="476" y="407" type="move" name="topright"/>
    </contour>
    <contour>
      <point x="249" y="0" type="move" name="bottom"/>
    </contour>
  </outline>
</glyph>
<glyph name="p" format="1">
  <advance width="517"/>
  <unicode hex="0070"/>
  <outline>
    <contour>
      <point x="121" y="-180"/>
      <point x="160" y="-174"/>
      <point x="200" y="-160" type="curve"/>
      <point x="191" y="-122"/>
      <point x="186" y="-68"/>
      <point x="183" y="5" type="curve"/>
      <point x="206" y="-5"/>
      <point x="232" y="-9"/>
      <point x="260" y="-9" type="curve" smooth="yes"/>
      <point x="396" y="-9"/>
      <point x="476" y="73"/>
      <point x="476" y="212" type="curve" smooth="yes"/>
      <point x="476" y="344"/>
      <point x="418" y="413"/>
      <point x="312" y="413" type="curve" smooth="yes"/>
      <point x="265" y="413"/>
      <point x="219" y="393"/>
      <point x="184" y="362" type="curve"/>
      <point x="177" y="395"/>
      <point x="158" y="414"/>
      <point x="122" y="414" type="curve" smooth="yes"/>
      <point x="102" y="414"/>
      <point x="69" y="405"/>
      <point x="43" y="378" type="curve"/>
      <point x="74" y="344"/>
      <point x="82" y="321"/>
      <point x="82" y="213" type="curve" smooth="yes"/>
      <point x="82" y="49"/>
      <point x="77" y="-104"/>
      <point x="70" y="-180" type="curve"/>
    </contour>
    <contour>
      <point x="229" y="45"/>
      <point x="203" y="57"/>
      <point x="182" y="81" type="curve"/>
      <point x="182" y="112" type="line" smooth="yes"/>
      <point x="182" y="189"/>
      <point x="185" y="253"/>
      <point x="187" y="302" type="curve"/>
      <point x="213" y="316"/>
      <point x="247" y="326"/>
      <point x="278" y="326" type="curve"/>
      <point x="330" y="305"/>
      <point x="362" y="249"/>
      <point x="362" y="177" type="curve" smooth="yes"/>
      <point x="362" y="94"/>
      <point x="323" y="45"/>
      <point x="257" y="45" type="curve" smooth="yes"/>
    </contour>
    <contour>
      <point x="263" y="407" type="move" name="top"/>
    </contour>
    <contour>
      <point x="263" y="0" type="move" name="bottom"/>
    </contour>
  </outline>
</glyph>
<glyph name="q" format="1">
  <advance width="508"/>
  <unicode hex="0071"/>
  <outline>
    <contour>
      <point x="366" y="-180"/>
      <point x="405" y="-176"/>
      <point x="445" y="-165" type="curve"/>
      <point x="438" y="-97"/>
      <point x="433" y="52"/>
      <point x="433" y="213" type="curve" smooth="yes"/>
      <point x="433" y="321"/>
      <point x="441" y="344"/>
      <point x="472" y="378" type="curve"/>
      <point x="445" y="405"/>
      <point x="413" y="414"/>
      <point x="393" y="414" type="curve" smooth="yes"/>
      <point x="363" y="414"/>
      <point x="344" y="401"/>
      <point x="335" y="376" type="curve"/>
      <point x="298" y="404"/>
      <point x="257" y="418"/>
      <point x="212" y="418" type="curve" smooth="yes"/>
      <point x="99" y="418"/>
      <point x="40" y="343"/>
      <point x="40" y="197" type="curve" smooth="yes"/>
      <point x="40" y="60"/>
      <point x="97" y="-12"/>
      <point x="207" y="-12" type="curve" smooth="yes"/>
      <point x="251" y="-12"/>
      <point x="297" y="9"/>
      <point x="333" y="43" type="curve"/>
      <point x="331" y="-60"/>
      <point x="325" y="-131"/>
      <point x="314" y="-180" type="curve"/>
    </contour>
    <contour>
      <point x="182" y="57"/>
      <point x="150" y="109"/>
      <point x="150" y="188" type="curve" smooth="yes"/>
      <point x="150" y="277"/>
      <point x="185" y="323"/>
      <point x="251" y="323" type="curve" smooth="yes"/>
      <point x="280" y="323"/>
      <point x="306" y="316"/>
      <point x="328" y="302" type="curve"/>
      <point x="329" y="253"/>
      <point x="333" y="189"/>
      <point x="333" y="112" type="curve" smooth="yes"/>
      <point x="333" y="95" type="line"/>
      <point x="304" y="69"/>
      <point x="268" y="51"/>
      <point x="237" y="47" type="curve"/>
    </contour>
    <contour>
      <point x="255" y="407" type="move" name="top"/>
    </contour>
    <contour>
      <point x="255" y="0" type="move" name="bottom"/>
    </contour>
  </outline>
</glyph>
<glyph name="r" format="1">
  <advance width="343"/>
  <unicode hex="0072"/>
  <outline>
    <contour>
      <point x="173" y="-6"/>
      <point x="197" y="-4"/>
      <point x="216" y="0" type="curve"/>
      <point x="203" y="29"/>
      <point x="196" y="82"/>
      <point x="196" y="150" type="curve" smooth="yes"/>
      <point x="196" y="200"/>
      <point x="198" y="242"/>
      <point x="199" y="278" type="curve"/>
      <point x="227" y="296"/>
      <point x="279" y="310"/>
      <point x="337" y="302" type="curve"/>
      <point x="337" y="342"/>
      <point x="329" y="396"/>
      <point x="319" y="423" type="curve"/>
      <point x="269" y="409"/>
      <point x="233" y="381"/>
      <point x="200" y="341" type="curve"/>
      <point x="198" y="387"/>
      <point x="177" y="414"/>
      <point x="131" y="414" type="curve" smooth="yes"/>
      <point x="111" y="414"/>
      <point x="78" y="405"/>
      <point x="52" y="378" type="curve"/>
      <point x="83" y="344"/>
      <point x="91" y="321"/>
      <point x="91" y="213" type="curve" smooth="yes"/>
      <point x="91" y="139"/>
      <point x="88" y="57"/>
      <point x="84" y="0" type="curve"/>
      <point x="110" y="-4"/>
      <point x="132" y="-6"/>
      <point x="152" y="-6" type="curve" smooth="yes"/>
    </contour>
    <contour>
      <point x="195" y="407" type="move" name="top"/>
    </contour>
    <contour>
      <point x="146" y="0" type="move" name="bottom"/>
    </contour>
  </outline>
</glyph>
<glyph name="t" format="1">
  <advance width="317"/>
  <unicode hex="0074"/>
  <outline>
    <contour>
      <point x="216" y="-9"/>
      <point x="266" y="16"/>
      <point x="293" y="53" type="curve"/>
      <point x="287" y="86" type="line"/>
      <point x="267" y="81"/>
      <point x="240" y="77"/>
      <point x="210" y="76" type="curve"/>
      <point x="201" y="121"/>
      <point x="198" y="187"/>
      <point x="198" y="252" type="curve" smooth="yes"/>
      <point x="198" y="282"/>
      <point x="199" y="309"/>
      <point x="201" y="336" type="curve"/>
      <point x="238" y="335"/>
      <point x="265" y="331"/>
      <point x="284" y="324" type="curve"/>
      <point x="296" y="349"/>
      <point x="301" y="371"/>
      <point x="301" y="404" type="curve"/>
      <point x="282" y="400"/>
      <point x="251" y="397"/>
      <point x="203" y="396" type="curve"/>
      <point x="202" y="421"/>
      <point x="200" y="447"/>
      <point x="198" y="466" type="curve"/>
      <point x="159" y="469" type="line"/>
      <point x="116" y="426"/>
      <point x="74" y="393"/>
      <point x="25" y="368" type="curve"/>
      <point x="25" y="341"/>
      <point x="39" y="333"/>
      <point x="95" y="333" type="curve"/>
      <point x="96" y="324"/>
      <point x="97" y="309"/>
      <point x="97" y="297" type="curve" smooth="yes"/>
      <point x="97" y="211"/>
      <point x="93" y="149"/>
      <point x="93" y="80" type="curve" smooth="yes"/>
      <point x="93" y="14"/>
      <point x="113" y="-9"/>
      <point x="168" y="-9" type="curve" smooth="yes"/>
    </contour>
    <contour>
      <point x="151" y="204" type="move" name="center"/>
    </contour>
    <contour>
      <point x="170" y="407" type="move" name="top"/>
    </contour>
    <contour>
      <point x="317" y="407" type="move" name="topright"/>
    </contour>
    <contour>
      <point x="160" y="0" type="move" name="bottom"/>
    </contour>
  </outline>
</glyph>
<glyph name="w" format="1">
  <advance width="692"/>
  <unicode hex="0077"/>
  <outline>
    <contour>
      <point x="282" y="23" type="line"/>
      <point x="303" y="94"/>
      <point x="326" y="167"/>
      <point x="348" y="234" type="curve"/>
      <point x="363" y="182"/>
      <point x="379" y="129"/>
      <point x="397" y="73" type="curve" smooth="yes"/>
      <point x="416" y="15"/>
      <point x="444" y="-9"/>
      <point x="481" y="-9" type="curve"/>
      <point x="553" y="23" type="line"/>
      <point x="596" y="167"/>
      <point x="647" y="320"/>
      <point x="687" y="413" type="curve"/>
      <point x="650" y="413"/>
      <point x="619" y="410"/>
      <point x="585" y="402" type="curve"/>
      <point x="598" y="369"/>
      <point x="586" y="322"/>
      <point x="507" y="85" type="curve"/>
      <point x="476" y="164"/>
      <point x="419" y="354"/>
      <point x="410" y="413" type="curve"/>
      <point x="358" y="413"/>
      <point x="314" y="407"/>
      <point x="276" y="392" type="curve"/>
      <point x="288" y="380"/>
      <point x="302" y="356"/>
      <point x="315" y="326" type="curve"/>
      <point x="304" y="281"/>
      <point x="281" y="209"/>
      <point x="239" y="80" type="curve"/>
      <point x="217" y="129"/>
      <point x="149" y="352"/>
      <point x="139" y="413" type="curve"/>
      <point x="87" y="413"/>
      <point x="44" y="407"/>
      <point x="5" y="392" type="curve"/>
      <point x="24" y="373"/>
      <point x="48" y="325"/>
      <point x="65" y="272" type="curve" smooth="yes"/>
      <point x="85" y="208"/>
      <point x="103" y="144"/>
      <point x="127" y="73" type="curve" smooth="yes"/>
      <point x="145" y="15"/>
      <point x="174" y="-9"/>
      <point x="211" y="-9" type="curve"/>
    </contour>
    <contour>
      <point x="346" y="407" type="move" name="top"/>
    </contour>
    <contour>
      <point x="346" y="0" type="move" name="bottom"/>
    </contour>
  </outline>
</glyph>
<glyph name="y" format="1">
  <advance width="491"/>
  <unicode hex="0079"/>
  <outline>
    <contour>
      <point x="341" y="-180"/>
      <point x="433" y="-125"/>
      <point x="433" y="0" type="curve" smooth="yes"/>
      <point x="433" y="23"/>
      <point x="429" y="85"/>
      <point x="429" y="167" type="curve" smooth="yes"/>
      <point x="429" y="279"/>
      <point x="431" y="359"/>
      <point x="436" y="417" type="curve"/>
      <point x="385" y="417"/>
      <point x="346" y="411"/>
      <point x="306" y="397" type="curve"/>
      <point x="318" y="372"/>
      <point x="325" y="320"/>
      <point x="325" y="257" type="curve" smooth="yes"/>
      <point x="325" y="236"/>
      <point x="327" y="203"/>
      <point x="328" y="126" type="curve"/>
      <point x="304" y="109"/>
      <point x="279" y="101"/>
      <point x="245" y="101" type="curve" smooth="yes"/>
      <point x="199" y="101"/>
      <point x="180" y="123"/>
      <point x="180" y="176" type="curve" smooth="yes"/>
      <point x="180" y="280"/>
      <point x="182" y="366"/>
      <point x="186" y="417" type="curve"/>
      <point x="140" y="417"/>
      <point x="88" y="410"/>
      <point x="55" y="397" type="curve"/>
      <point x="68" y="369"/>
      <point x="75" y="325"/>
      <point x="75" y="262" type="curve" smooth="yes"/>
      <point x="75" y="234"/>
      <point x="71" y="169"/>
      <point x="71" y="144" type="curve" smooth="yes"/>
      <point x="71" y="86"/>
      <point x="86" y="44"/>
      <point x="121" y="23" type="curve"/>
      <point x="71" y="-24"/>
      <point x="42" y="-83"/>
      <point x="42" y="-134" type="curve"/>
      <point x="81" y="-163"/>
      <point x="143" y="-180"/>
      <point x="217" y="-180" type="curve" smooth="yes"/>
    </contour>
    <contour>
      <point x="185" y="-116"/>
      <point x="150" y="-101"/>
      <point x="126" y="-78" type="curve"/>
      <point x="132" y="-49"/>
      <point x="147" y="-19"/>
      <point x="167" y="8" type="curve"/>
      <point x="230" y="2"/>
      <point x="286" y="25"/>
      <point x="327" y="72" type="curve"/>
      <point x="327" y="18" type="line" smooth="yes"/>
      <point x="327" y="-79"/>
      <point x="288" y="-116"/>
      <point x="223" y="-116" type="curve" smooth="yes"/>
    </contour>
    <contour>
      <point x="242" y="407" type="move" name="top"/>
    </contour>
    <contour>
      <point x="242" y="0" type="move" name="bottom"/>
    </contour>
  </outline>
</glyph>
<glyph name="z" format="1">
  <advance width="424"/>
  <unicode hex="007A"/>
  <outline>
    <contour>
      <point x="379" y="16"/>
      <point x="387" y="76"/>
      <point x="387" y="113" type="curve"/>
      <point x="353" y="96"/>
      <point x="297" y="87"/>
      <point x="247" y="87" type="curve" smooth="yes"/>
      <point x="221" y="87"/>
      <point x="192" y="90"/>
      <point x="169" y="92" type="curve"/>
      <point x="241" y="184"/>
      <point x="358" y="304"/>
      <point x="373" y="334" type="curve"/>
      <point x="378" y="343"/>
      <point x="380" y="354"/>
      <point x="380" y="367" type="curve" smooth="yes"/>
      <point x="380" y="383"/>
      <point x="373" y="409"/>
      <point x="349" y="429" type="curve"/>
      <point x="317" y="405"/>
      <point x="299" y="399"/>
      <point x="205" y="399" type="curve" smooth="yes"/>
      <point x="151" y="399"/>
      <point x="79" y="403"/>
      <point x="36" y="410" type="curve"/>
      <point x="36" y="373"/>
      <point x="45" y="323"/>
      <point x="59" y="289" type="curve"/>
      <point x="80" y="301"/>
      <point x="109" y="307"/>
      <point x="159" y="307" type="curve" smooth="yes"/>
      <point x="210" y="307"/>
      <point x="252" y="305"/>
      <point x="284" y="304" type="curve"/>
      <point x="184" y="184"/>
      <point x="92" y="82"/>
      <point x="37" y="28" type="curve"/>
      <point x="37" y="-3" type="line"/>
      <point x="112" y="2"/>
      <point x="321" y="2"/>
      <point x="368" y="-8" type="curve"/>
    </contour>
    <contour>
      <point x="210" y="407" type="move" name="top"/>
    </contour>
    <contour>
      <point x="210" y="0" type="move" name="bottom"/>
    </contour>
  </outline>
</glyph>
<glyph name="braceleft" format="1">
  <advance width="361"/>
  <unicode hex="007B"/>
  <outline>
    <contour>
      <point x="332" y="-104"/>
      <point x="334" y="-90"/>
      <point x="334" y="-77" type="curve" smooth="yes"/>
      <point x="334" y="-58"/>
      <point x="332" y="-41"/>
      <point x="329" y="-22" type="curve"/>
      <point x="287" y="-28"/>
      <point x="252" y="-31"/>
      <point x="223" y="-31" type="curve"/>
      <point x="208" y="-15"/>
      <point x="195" y="20"/>
      <point x="195" y="78" type="curve" smooth="yes"/>
      <point x="195" y="103"/>
      <point x="197" y="129"/>
      <point x="197" y="154" type="curve" smooth="yes"/>
      <point x="197" y="208"/>
      <point x="189" y="254"/>
      <point x="143" y="262" type="curve"/>
      <point x="143" y="266" type="line"/>
      <point x="189" y="274"/>
      <point x="196" y="320"/>
      <point x="196" y="374" type="curve" smooth="yes"/>
      <point x="196" y="398"/>
      <point x="195" y="424"/>
      <point x="195" y="449" type="curve" smooth="yes"/>
      <point x="195" y="507"/>
      <point x="208" y="543"/>
      <point x="223" y="559" type="curve"/>
      <point x="252" y="559"/>
      <point x="287" y="556"/>
      <point x="329" y="550" type="curve"/>
      <point x="332" y="569"/>
      <point x="334" y="586"/>
      <point x="334" y="605" type="curve" smooth="yes"/>
      <point x="334" y="618"/>
      <point x="332" y="632"/>
      <point x="329" y="647" type="curve"/>
      <point x="186" y="647"/>
      <point x="78" y="613"/>
      <point x="78" y="479" type="curve" smooth="yes"/>
      <point x="78" y="434"/>
      <point x="100" y="367"/>
      <point x="100" y="329" type="curve" smooth="yes"/>
      <point x="100" y="305"/>
      <point x="83" y="290"/>
      <point x="40" y="289" type="curve"/>
      <point x="40" y="239" type="line"/>
      <point x="83" y="238"/>
      <point x="100" y="223"/>
      <point x="100" y="199" type="curve" smooth="yes"/>
      <point x="100" y="155"/>
      <point x="78" y="94"/>
      <point x="78" y="49" type="curve" smooth="yes"/>
      <point x="78" y="-85"/>
      <point x="186" y="-119"/>
      <point x="329" y="-119" type="curve"/>
    </contour>
  </outline>
</glyph>
<glyph name="section" format="1">
  <advance width="465"/>
  <unicode hex="00A7"/>
  <outline>
    <contour>
      <point x="344" y="-188"/>
      <point x="410" y="-140"/>
      <point x="410" y="-52" type="curve" smooth="yes"/>
      <point x="410" y="-5"/>
      <point x="388" y="32"/>
      <point x="342" y="63" type="curve"/>
      <point x="387" y="85"/>
      <point x="410" y="124"/>
      <point x="410" y="176" type="curve" smooth="yes"/>
      <point x="410" y="331"/>
      <point x="166" y="326"/>
      <point x="166" y="418" type="curve" smooth="yes"/>
      <point x="166" y="443"/>
      <point x="185" y="466"/>
      <point x="210" y="471" type="curve"/>
      <point x="246" y="471"/>
      <point x="304" y="444"/>
      <point x="358" y="402" type="curve"/>
      <point x="376" y="426"/>
      <point x="392" y="475"/>
      <point x="392" y="508" type="curve"/>
      <point x="354" y="522"/>
      <point x="305" y="530"/>
      <point x="250" y="530" type="curve" smooth="yes"/>
      <point x="136" y="530"/>
      <point x="59" y="478"/>
      <point x="59" y="401" type="curve" smooth="yes"/>
      <point x="59" y="352"/>
      <point x="84" y="313"/>
      <point x="137" y="280" type="curve"/>
      <point x="87" y="258"/>
      <point x="59" y="219"/>
      <point x="59" y="173" type="curve" smooth="yes"/>
      <point x="59" y="20"/>
      <point x="304" y="17"/>
      <point x="304" y="-68" type="curve" smooth="yes"/>
      <point x="304" y="-106"/>
      <point x="271" y="-128"/>
      <point x="214" y="-128" type="curve" smooth="yes"/>
      <point x="154" y="-128"/>
      <point x="100" y="-111"/>
      <point x="70" y="-82" type="curve"/>
      <point x="59" y="-105"/>
      <point x="55" y="-126"/>
      <point x="55" y="-155" type="curve"/>
      <point x="100" y="-177"/>
      <point x="158" y="-188"/>
      <point x="220" y="-188" type="curve" smooth="yes"/>
    </contour>
    <contour>
      <point x="189" y="139"/>
      <point x="166" y="160"/>
      <point x="166" y="191" type="curve" smooth="yes"/>
      <point x="166" y="214"/>
      <point x="184" y="236"/>
      <point x="208" y="242" type="curve"/>
      <point x="281" y="207"/>
      <point x="303" y="188"/>
      <point x="303" y="160" type="curve" smooth="yes"/>
      <point x="303" y="134"/>
      <point x="288" y="115"/>
      <point x="260" y="106" type="curve"/>
    </contour>
  </outline>
</glyph>
<glyph name="guillemetleft" format="1">
  <advance width="484"/>
  <unicode hex="00AB"/>
  <outline>
    <contour>
      <point x="409" y="58"/>
      <point x="428" y="80"/>
      <point x="447" y="109" type="curve"/>
      <point x="334" y="222" type="line"/>
      <point x="447" y="336" type="line"/>
      <point x="428" y="365"/>
      <point x="409" y="386"/>
      <point x="374" y="412" type="curve"/>
      <point x="332" y="350"/>
      <point x="290" y="301"/>
      <point x="233" y="238" type="curve"/>
      <point x="233" y="207" type="line"/>
      <point x="290" y="144"/>
      <point x="332" y="95"/>
      <point x="374" y="32" type="curve"/>
    </contour>
    <contour>
      <point x="203" y="58"/>
      <point x="222" y="80"/>
      <point x="241" y="109" type="curve"/>
      <point x="128" y="222" type="line"/>
      <point x="241" y="336" type="line"/>
      <point x="222" y="365"/>
      <point x="203" y="386"/>
      <point x="168" y="412" type="curve"/>
      <point x="126" y="350"/>
      <point x="84" y="301"/>
      <point x="27" y="238" type="curve"/>
      <point x="27" y="207" type="line"/>
      <point x="84" y="144"/>
      <point x="126" y="95"/>
      <point x="168" y="32" type="curve"/>
    </contour>
  </outline>
</glyph>
<glyph name="registered" format="1">
  <advance width="552"/>
  <unicode hex="00AE"/>
  <outline>
    <contour>
      <point x="406" y="218"/>
      <point x="512" y="324"/>
      <point x="512" y="454" type="curve" smooth="yes"/>
      <point x="512" y="584"/>
      <point x="406" y="690"/>
      <point x="276" y="690" type="curve" smooth="yes"/>
      <point x="146" y="690"/>
      <point x="40" y="584"/>
      <point x="40" y="454" type="curve" smooth="yes"/>
      <point x="40" y="324"/>
      <point x="146" y="218"/>
      <point x="276" y="218" type="curve" smooth="yes"/>
    </contour>
    <contour>
      <point x="168" y="257"/>
      <point x="79" y="345"/>
      <point x="79" y="454" type="curve" smooth="yes"/>
      <point x="79" y="562"/>
      <point x="168" y="650"/>
      <point x="276" y="650" type="curve" smooth="yes"/>
      <point x="384" y="650"/>
      <point x="473" y="562"/>
      <point x="473" y="454" type="curve" smooth="yes"/>
      <point x="473" y="345"/>
      <point x="384" y="257"/>
      <point x="276" y="257" type="curve" smooth="yes"/>
    </contour>
    <contour>
      <point x="218" y="323"/>
      <point x="230" y="324"/>
      <point x="241" y="326" type="curve"/>
      <point x="236" y="339"/>
      <point x="233" y="371"/>
      <point x="232" y="419" type="curve"/>
      <point x="244" y="417"/>
      <point x="256" y="416"/>
      <point x="279" y="416" type="curve"/>
      <point x="303" y="374"/>
      <point x="322" y="339"/>
      <point x="329" y="323" type="curve"/>
      <point x="356" y="323"/>
      <point x="379" y="325"/>
      <point x="401" y="333" type="curve"/>
      <point x="381" y="348"/>
      <point x="358" y="385"/>
      <point x="335" y="429" type="curve"/>
      <point x="369" y="444"/>
      <point x="389" y="471"/>
      <point x="389" y="504" type="curve" smooth="yes"/>
      <point x="389" y="560"/>
      <point x="348" y="592"/>
      <point x="274" y="592" type="curve" smooth="yes"/>
      <point x="234" y="592"/>
      <point x="192" y="586"/>
      <point x="169" y="578" type="curve"/>
      <point x="174" y="565"/>
      <point x="177" y="529"/>
      <point x="177" y="474" type="curve" smooth="yes"/>
      <point x="177" y="426"/>
      <point x="175" y="358"/>
      <point x="171" y="326" type="curve"/>
      <point x="184" y="324"/>
      <point x="197" y="323"/>
      <point x="208" y="323" type="curve" smooth="yes"/>
    </contour>
    <contour>
      <point x="274" y="446"/>
      <point x="252" y="451"/>
      <point x="231" y="457" type="curve"/>
      <point x="235" y="551" type="line"/>
      <point x="243" y="553"/>
      <point x="252" y="554"/>
      <point x="262" y="554" type="curve" smooth="yes"/>
      <point x="304" y="554"/>
      <point x="329" y="538"/>
      <point x="329" y="500" type="curve" smooth="yes"/>
      <point x="329" y="474"/>
      <point x="310" y="456"/>
      <point x="288" y="446" type="curve"/>
    </contour>
  </outline>
</glyph>
<glyph name="dotlessj" format="1">
  <advance width="248"/>
  <unicode hex="0237"/>
  <outline>
    <contour>
      <point x="117" y="-111"/>
      <point x="181" y="-63"/>
      <point x="181" y="63" type="curve" smooth="yes"/>
      <point x="181" y="110"/>
      <point x="178" y="129"/>
      <point x="178" y="172" type="curve" smooth="yes"/>
      <point x="178" y="257"/>
      <point x="180" y="374"/>
      <point x="185" y="417" type="curve"/>
      <point x="139" y="417"/>
      <point x="100" y="413"/>
      <point x="54" y="397" type="curve"/>
      <point x="73" y="367"/>
      <point x="75" y="320"/>
      <point x="75" y="106" type="curve" smooth="yes"/>
      <point x="75" y="-50"/>
      <point x="42" y="-104"/>
      <point x="-24" y="-164" type="curve"/>
      <point x="-9" y="-189" type="line"/>
    </contour>
    <contour>
      <point x="127" y="407" type="move" name="top"/>
    </contour>
    <contour>
      <point x="127" y="0" type="move" name="bottom"/>
    </contour>
  </outline>
</glyph>
<glyph name="acutecomb" format="1">
  <advance width="212"/>
  <unicode hex="0301"/>
  <outline>
    <contour>
      <point x="93" y="482"/>
      <point x="171" y="517"/>
      <point x="212" y="565" type="curve"/>
      <point x="194" y="598"/>
      <point x="157" y="614"/>
      <point x="102" y="614" type="curve"/>
      <point x="96" y="572"/>
      <point x="51" y="521"/>
      <point x="0" y="499" type="curve"/>
      <point x="9" y="470" type="line"/>
    </contour>
    <contour>
      <point x="106" y="607" type="move" name="top"/>
    </contour>
    <contour>
      <point x="90" y="407" type="move" name="_top"/>
    </contour>
  </outline>
</glyph>
<glyph name="circumflexcomb" format="1">
  <advance width="280"/>
  <unicode hex="0302"/>
  <outline>
    <contour>
      <point x="122" y="555" type="line"/>
      <point x="177" y="476" type="line"/>
      <point x="217" y="476"/>
      <point x="250" y="480"/>
      <point x="280" y="490" type="curve"/>
      <point x="253" y="520"/>
      <point x="222" y="563"/>
      <point x="192" y="617" type="curve"/>
      <point x="153" y="617"/>
      <point x="120" y="614"/>
      <point x="90" y="603" type="curve"/>
      <point x="66" y="567"/>
      <point x="28" y="517"/>
      <point x="0" y="484" type="curve"/>
      <point x="29" y="478"/>
      <point x="48" y="476"/>
      <point x="71" y="476" type="curve"/>
    </contour>
    <contour>
      <point x="140" y="617" type="move" name="top"/>
    </contour>
    <contour>
      <point x="140" y="407" type="move" name="_top"/>
    </contour>
  </outline>
</glyph>
<glyph name="brevecomb" format="1">
  <advance width="286"/>
  <unicode hex="0306"/>
  <outline>
    <contour>
      <point x="215" y="480"/>
      <point x="266" y="530"/>
      <point x="266" y="604" type="curve"/>
      <point x="252" y="612"/>
      <point x="232" y="617"/>
      <point x="213" y="617" type="curve"/>
      <point x="213" y="569"/>
      <point x="192" y="540"/>
      <point x="161" y="540" type="curve" smooth="yes"/>
      <point x="130" y="540"/>
      <point x="111" y="568"/>
      <point x="111" y="617" type="curve"/>
      <point x="73" y="617"/>
      <point x="46" y="612"/>
      <point x="20" y="599" type="curve"/>
      <point x="20" y="528"/>
      <point x="72" y="480"/>
      <point x="144" y="480" type="curve" smooth="yes"/>
    </contour>
    <contour>
      <point x="143" y="612" type="move" name="top"/>
    </contour>
    <contour>
      <point x="143" y="407" type="move" name="_top"/>
    </contour>
  </outline>
</glyph>
<glyph name="dotaccentcomb" format="1">
  <advance width="215"/>
  <unicode hex="0307"/>
  <outline>
    <contour>
      <point x="134" y="492"/>
      <point x="157" y="516"/>
      <point x="179" y="542" type="curve"/>
      <point x="153" y="564"/>
      <point x="130" y="587"/>
      <point x="108" y="614" type="curve"/>
      <point x="81" y="592"/>
      <point x="58" y="568"/>
      <point x="36" y="542" type="curve"/>
      <point x="62" y="520"/>
      <point x="86" y="497"/>
      <point x="108" y="470" type="curve"/>
    </contour>
    <contour>
      <point x="108" y="607" type="move" name="top"/>
    </contour>
    <contour>
      <point x="108" y="407" type="move" name="_top"/>
    </contour>
  </outline>
</glyph>
<glyph name="dieresiscomb" format="1">
  <advance width="383"/>
  <unicode hex="0308"/>
  <outline>
    <contour>
      <point x="194" y="495"/>
      <point x="216" y="517"/>
      <point x="237" y="542" type="curve"/>
      <point x="212" y="563"/>
      <point x="189" y="585"/>
      <point x="169" y="611" type="curve"/>
      <point x="144" y="589"/>
      <point x="121" y="567"/>
      <point x="100" y="542" type="curve"/>
      <point x="126" y="521"/>
      <point x="148" y="499"/>
      <point x="169" y="474" type="curve"/>
    </contour>
    <contour>
      <point x="240" y="495"/>
      <point x="262" y="517"/>
      <point x="284" y="542" type="curve"/>
      <point x="258" y="563"/>
      <point x="236" y="585"/>
      <point x="215" y="611" type="curve"/>
      <point x="190" y="589"/>
      <point x="168" y="567"/>
      <point x="147" y="542" type="curve"/>
      <point x="172" y="521"/>
      <point x="194" y="499"/>
      <point x="215" y="474" type="curve"/>
    </contour>
    <contour>
      <point x="192" y="607" type="move" name="top"/>
    </contour>
    <contour>
      <point x="192" y="407" type="move" name="_top"/>
    </contour>
  </outline>
</glyph>
<glyph name="hungarumlautcomb" format="1">
  <advance width="379"/>
  <unicode hex="030B"/>
  <outline>
    <contour>
      <point x="272" y="482"/>
      <point x="338" y="517"/>
      <point x="379" y="565" type="curve"/>
      <point x="361" y="598"/>
      <point x="324" y="614"/>
      <point x="269" y="614" type="curve"/>
      <point x="263" y="572"/>
      <point x="228" y="521"/>
      <point x="187" y="499" type="curve"/>
      <point x="196" y="470" type="line"/>
    </contour>
    <contour>
      <point x="85" y="482"/>
      <point x="151" y="517"/>
      <point x="192" y="565" type="curve"/>
      <point x="174" y="598"/>
      <point x="137" y="614"/>
      <point x="82" y="614" type="curve"/>
      <point x="76" y="572"/>
      <point x="41" y="521"/>
      <point x="0" y="499" type="curve"/>
      <point x="9" y="470" type="line"/>
    </contour>
    <contour>
      <point x="190" y="614" type="move" name="top"/>
    </contour>
    <contour>
      <point x="160" y="407" type="move" name="_top"/>
    </contour>
  </outline>
</glyph>
<glyph name="commaturnedabovecomb" format="1">
  <advance width="168"/>
  <unicode hex="0312"/>
  <outline>
    <component base="commaaccentcomb" xOffset="170" yOffset="417" xScale="-1" yScale="-1"/>
    <contour>
      <point x="84" y="666" type="move" name="top"/>
    </contour>
    <contour>
      <point x="84" y="407" type="move" name="_top"/>
    </contour>
  </outline>
</glyph>
<glyph name="commaaccentcomb" format="1">
  <advance width="172"/>
  <unicode hex="0326"/>
  <outline>
    <contour>
      <point x="123" y="-201"/>
      <point x="147" y="-142"/>
      <point x="147" y="-61" type="curve"/>
      <point x="116" y="-40" type="line"/>
      <point x="86" y="-44"/>
      <point x="49" y="-61"/>
      <point x="25" y="-81" type="curve"/>
      <point x="44" y="-103"/>
      <point x="59" y="-142"/>
      <point x="59" y="-168" type="curve" smooth="yes"/>
      <point x="59" y="-193"/>
      <point x="54" y="-217"/>
      <point x="42" y="-236" type="curve"/>
      <point x="69" y="-256" type="line"/>
    </contour>
    <contour>
      <point x="86" y="0" type="move" name="_bottom"/>
    </contour>
    <contour>
      <point x="86" y="-259" type="move" name="bottom"/>
    </contour>
  </outline>
</glyph>
<glyph name="cedillacomb" format="1">
  <advance width="204"/>
  <unicode hex="0327"/>
  <outline>
    <contour>
      <point x="167" y="-219"/>
      <point x="201" y="-190"/>
      <point x="201" y="-140" type="curve" smooth="yes"/>
      <point x="201" y="-92"/>
      <point x="164" y="-55"/>
      <point x="104" y="-43" type="curve"/>
      <point x="113" y="14" type="line"/>
      <point x="70" y="14" type="line"/>
      <point x="54" y="-50" type="line"/>
      <point x="102" y="-61"/>
      <point x="128" y="-84"/>
      <point x="128" y="-117" type="curve" smooth="yes"/>
      <point x="128" y="-147"/>
      <point x="107" y="-165"/>
      <point x="73" y="-165" type="curve" smooth="yes"/>
      <point x="52" y="-165"/>
      <point x="29" y="-157"/>
      <point x="12" y="-144" type="curve"/>
      <point x="2" y="-172" type="line"/>
      <point x="24" y="-200"/>
      <point x="66" y="-219"/>
      <point x="108" y="-219" type="curve" smooth="yes"/>
    </contour>
    <contour>
      <point x="89" y="0" type="move" name="_bottom"/>
    </contour>
  </outline>
</glyph>
<glyph name="ogonekcomb" format="1">
  <advance width="214"/>
  <unicode hex="0328"/>
  <outline>
    <contour>
      <point x="144" y="-211"/>
      <point x="188" y="-188"/>
      <point x="211" y="-156" type="curve"/>
      <point x="201" y="-127" type="line"/>
      <point x="183" y="-143"/>
      <point x="159" y="-153"/>
      <point x="137" y="-153" type="curve" smooth="yes"/>
      <point x="100" y="-153"/>
      <point x="79" y="-130"/>
      <point x="79" y="-92" type="curve" smooth="yes"/>
      <point x="79" y="-48"/>
      <point x="105" y="-15"/>
      <point x="154" y="0" type="curve"/>
      <point x="64" y="0"/>
      <point x="3" y="-48"/>
      <point x="3" y="-118" type="curve" smooth="yes"/>
      <point x="3" y="-177"/>
      <point x="39" y="-211"/>
      <point x="102" y="-211" type="curve" smooth="yes"/>
    </contour>
    <contour>
      <point x="154" y="0" type="move" name="_ogonek"/>
    </contour>
  </outline>
</glyph>
<glyph name="slashlongcomb" format="1">
  <advance width="332"/>
  <unicode hex="0338"/>
  <outline>
    <contour>
      <point x="41" y="-100"/>
      <point x="59" y="-96"/>
      <point x="75" y="-91" type="curve"/>
      <point x="96" y="2"/>
      <point x="281" y="442"/>
      <point x="349" y="592" type="curve"/>
      <point x="334" y="597"/>
      <point x="320" y="601"/>
      <point x="307" y="601" type="curve" smooth="yes"/>
      <point x="291" y="601"/>
      <point x="274" y="597"/>
      <point x="258" y="592" type="curve"/>
      <point x="236" y="499"/>
      <point x="52" y="59"/>
      <point x="-16" y="-91" type="curve"/>
      <point x="-1" y="-96"/>
      <point x="12" y="-100"/>
      <point x="25" y="-100" type="curve" smooth="yes"/>
    </contour>
    <contour>
      <point x="166" y="251" type="move" name="_center"/>
    </contour>
  </outline>
</glyph>
<glyph name="Omega" format="1">
  <advance width="580"/>
  <unicode hex="03A9"/>
  <outline>
    <contour>
      <point x="93" y="-1"/>
      <point x="146" y="0"/>
      <point x="197" y="0" type="curve" smooth="yes"/>
      <point x="235" y="0" type="line"/>
      <point x="235" y="115" type="line"/>
      <point x="181" y="142"/>
      <point x="147" y="201"/>
      <point x="147" y="279" type="curve" smooth="yes"/>
      <point x="147" y="371"/>
      <point x="212" y="439"/>
      <point x="303" y="439" type="curve"/>
      <point x="384" y="423"/>
      <point x="433" y="360"/>
      <point x="433" y="274" type="curve" smooth="yes"/>
      <point x="433" y="199"/>
      <point x="401" y="143"/>
      <point x="347" y="116" type="curve"/>
      <point x="347" y="0" type="line"/>
      <point x="385" y="0" type="line" smooth="yes"/>
      <point x="435" y="0"/>
      <point x="489" y="-1"/>
      <point x="535" y="-2" type="curve"/>
      <point x="538" y="8"/>
      <point x="539" y="20"/>
      <point x="539" y="32" type="curve" smooth="yes"/>
      <point x="539" y="44"/>
      <point x="538" y="61"/>
      <point x="535" y="74" type="curve"/>
      <point x="499" y="65"/>
      <point x="452" y="55"/>
      <point x="408" y="53" type="curve"/>
      <point x="408" y="96" type="line"/>
      <point x="494" y="138"/>
      <point x="547" y="217"/>
      <point x="547" y="318" type="curve" smooth="yes"/>
      <point x="547" y="447"/>
      <point x="450" y="533"/>
      <point x="307" y="533" type="curve" smooth="yes"/>
      <point x="146" y="533"/>
      <point x="34" y="434"/>
      <point x="34" y="292" type="curve" smooth="yes"/>
      <point x="34" y="194"/>
      <point x="87" y="119"/>
      <point x="173" y="90" type="curve"/>
      <point x="173" y="53" type="line"/>
      <point x="130" y="55"/>
      <point x="85" y="65"/>
      <point x="46" y="74" type="curve"/>
      <point x="44" y="61"/>
      <point x="43" y="44"/>
      <point x="43" y="31" type="curve" smooth="yes"/>
      <point x="43" y="20"/>
      <point x="44" y="8"/>
      <point x="46" y="-2" type="curve"/>
    </contour>
  </outline>
</glyph>
<glyph name="pi" format="1">
  <advance width="547"/>
  <unicode hex="03C0"/>
  <outline>
    <contour>
      <point x="175" y="-6"/>
      <point x="196" y="-4"/>
      <point x="216" y="-1" type="curve"/>
      <point x="205" y="22"/>
      <point x="200" y="81"/>
      <point x="200" y="176" type="curve" smooth="yes"/>
      <point x="200" y="218"/>
      <point x="201" y="267"/>
      <point x="204" y="311" type="curve"/>
      <point x="345" y="311" type="line"/>
      <point x="346" y="287"/>
      <point x="346" y="261"/>
      <point x="346" y="230" type="curve" smooth="yes"/>
      <point x="346" y="151"/>
      <point x="341" y="52"/>
      <point x="336" y="-1" type="curve"/>
      <point x="361" y="-4"/>
      <point x="383" y="-6"/>
      <point x="403" y="-6" type="curve" smooth="yes"/>
      <point x="422" y="-6"/>
      <point x="443" y="-4"/>
      <point x="464" y="-1" type="curve"/>
      <point x="453" y="22"/>
      <point x="448" y="81"/>
      <point x="448" y="176" type="curve" smooth="yes"/>
      <point x="448" y="218"/>
      <point x="449" y="268"/>
      <point x="451" y="311" type="curve"/>
      <point x="492" y="307" type="line"/>
      <point x="512" y="345"/>
      <point x="522" y="384"/>
      <point x="522" y="426" type="curve"/>
      <point x="478" y="416"/>
      <point x="378" y="407"/>
      <point x="288" y="407" type="curve" smooth="yes"/>
      <point x="212" y="407"/>
      <point x="137" y="408"/>
      <point x="56" y="412" type="curve"/>
      <point x="35" y="374"/>
      <point x="25" y="334"/>
      <point x="25" y="293" type="curve"/>
      <point x="42" y="297"/>
      <point x="67" y="301"/>
      <point x="97" y="304" type="curve"/>
      <point x="99" y="282"/>
      <point x="99" y="257"/>
      <point x="99" y="230" type="curve" smooth="yes"/>
      <point x="99" y="151"/>
      <point x="94" y="52"/>
      <point x="88" y="-1" type="curve"/>
      <point x="114" y="-4"/>
      <point x="136" y="-6"/>
      <point x="155" y="-6" type="curve" smooth="yes"/>
    </contour>
  </outline>
</glyph>
<glyph name="bullet" format="1">
  <advance width="350"/>
  <unicode hex="2022"/>
  <outline>
    <contour>
      <point x="227" y="177"/>
      <point x="272" y="221"/>
      <point x="315" y="274" type="curve"/>
      <point x="262" y="317"/>
      <point x="218" y="361"/>
      <point x="175" y="414" type="curve"/>
      <point x="122" y="371"/>
      <point x="78" y="326"/>
      <point x="35" y="274" type="curve"/>
      <point x="88" y="231"/>
      <point x="132" y="186"/>
      <point x="175" y="134" type="curve"/>
    </contour>
  </outline>
</glyph>
<glyph name="literSign" format="1">
  <advance width="289"/>
  <unicode hex="2113"/>
  <outline>
    <contour>
      <point x="219" y="-9"/>
      <point x="264" y="51"/>
      <point x="264" y="133" type="curve"/>
      <point x="240" y="133" type="line"/>
      <point x="240" y="91"/>
      <point x="221" y="55"/>
      <point x="198" y="50" type="curve"/>
      <point x="190" y="76"/>
      <point x="188" y="109"/>
      <point x="188" y="192" type="curve" smooth="yes"/>
      <point x="188" y="245" type="line"/>
      <point x="237" y="298"/>
      <point x="259" y="367"/>
      <point x="259" y="425" type="curve" smooth="yes"/>
      <point x="259" y="494"/>
      <point x="229" y="547"/>
      <point x="182" y="547" type="curve" smooth="yes"/>
      <point x="143" y="547"/>
      <point x="115" y="536"/>
      <point x="89" y="515" type="curve"/>
      <point x="89" y="317" type="line" smooth="yes"/>
      <point x="89" y="233"/>
      <point x="85" y="159"/>
      <point x="85" y="86" type="curve" smooth="yes"/>
      <point x="85" y="13"/>
      <point x="103" y="-9"/>
      <point x="149" y="-9" type="curve" smooth="yes"/>
    </contour>
    <contour>
      <point x="188" y="500" type="line"/>
      <point x="212" y="500"/>
      <point x="236" y="468"/>
      <point x="236" y="425" type="curve" smooth="yes"/>
      <point x="236" y="372"/>
      <point x="218" y="321"/>
      <point x="188" y="280" type="curve"/>
    </contour>
  </outline>
</glyph>
<glyph name="trademark" format="1">
  <advance width="692"/>
  <unicode hex="2122"/>
  <outline>
    <contour>
      <point x="334" y="323"/>
      <point x="342" y="324"/>
      <point x="350" y="326" type="curve"/>
      <point x="346" y="341"/>
      <point x="344" y="380"/>
      <point x="344" y="440" type="curve" smooth="yes"/>
      <point x="344" y="463"/>
      <point x="344" y="488"/>
      <point x="345" y="511" type="curve"/>
      <point x="378" y="447"/>
      <point x="419" y="364"/>
      <point x="436" y="326" type="curve"/>
      <point x="440" y="325"/>
      <point x="444" y="324"/>
      <point x="448" y="324" type="curve" smooth="yes"/>
      <point x="453" y="324"/>
      <point x="457" y="325"/>
      <point x="462" y="326" type="curve"/>
      <point x="481" y="367"/>
      <point x="526" y="461"/>
      <point x="562" y="526" type="curve"/>
      <point x="562" y="512"/>
      <point x="563" y="495"/>
      <point x="563" y="476" type="curve" smooth="yes"/>
      <point x="563" y="424"/>
      <point x="560" y="359"/>
      <point x="557" y="326" type="curve"/>
      <point x="569" y="324"/>
      <point x="581" y="323"/>
      <point x="591" y="323" type="curve" smooth="yes"/>
      <point x="602" y="323"/>
      <point x="614" y="324"/>
      <point x="625" y="326" type="curve"/>
      <point x="619" y="341"/>
      <point x="616" y="380"/>
      <point x="616" y="440" type="curve" smooth="yes"/>
      <point x="616" y="492"/>
      <point x="619" y="557"/>
      <point x="622" y="590" type="curve"/>
      <point x="609" y="592"/>
      <point x="597" y="593"/>
      <point x="587" y="593" type="curve" smooth="yes"/>
      <point x="574" y="593"/>
      <point x="562" y="592"/>
      <point x="554" y="590" type="curve"/>
      <point x="535" y="551"/>
      <point x="491" y="460"/>
      <point x="461" y="403" type="curve"/>
      <point x="432" y="456"/>
      <point x="385" y="551"/>
      <point x="368" y="590" type="curve"/>
      <point x="355" y="592"/>
      <point x="343" y="593"/>
      <point x="333" y="593" type="curve" smooth="yes"/>
      <point x="322" y="593"/>
      <point x="311" y="592"/>
      <point x="301" y="590" type="curve"/>
      <point x="305" y="566"/>
      <point x="307" y="533"/>
      <point x="307" y="475" type="curve" smooth="yes"/>
      <point x="307" y="423"/>
      <point x="305" y="359"/>
      <point x="303" y="326" type="curve"/>
      <point x="311" y="324"/>
      <point x="320" y="323"/>
      <point x="326" y="323" type="curve" smooth="yes"/>
    </contour>
    <contour>
      <point x="162" y="323"/>
      <point x="175" y="324"/>
      <point x="184" y="326" type="curve"/>
      <point x="178" y="341"/>
      <point x="175" y="378"/>
      <point x="175" y="440" type="curve" smooth="yes"/>
      <point x="175" y="472"/>
      <point x="177" y="512"/>
      <point x="179" y="543" type="curve"/>
      <point x="211" y="543"/>
      <point x="243" y="541"/>
      <point x="262" y="540" type="curve"/>
      <point x="264" y="549"/>
      <point x="265" y="558"/>
      <point x="265" y="566" type="curve" smooth="yes"/>
      <point x="265" y="574"/>
      <point x="264" y="583"/>
      <point x="262" y="591" type="curve"/>
      <point x="249" y="587"/>
      <point x="217" y="585"/>
      <point x="164" y="585" type="curve" smooth="yes"/>
      <point x="119" y="585"/>
      <point x="64" y="587"/>
      <point x="35" y="589" type="curve"/>
      <point x="33" y="580"/>
      <point x="32" y="572"/>
      <point x="32" y="564" type="curve" smooth="yes"/>
      <point x="32" y="556"/>
      <point x="33" y="547"/>
      <point x="35" y="538" type="curve"/>
      <point x="47" y="542"/>
      <point x="74" y="544"/>
      <point x="119" y="544" type="curve"/>
      <point x="121" y="527"/>
      <point x="122" y="504"/>
      <point x="122" y="476" type="curve" smooth="yes"/>
      <point x="122" y="426"/>
      <point x="119" y="360"/>
      <point x="116" y="326" type="curve"/>
      <point x="129" y="324"/>
      <point x="141" y="323"/>
      <point x="151" y="323" type="curve" smooth="yes"/>
    </contour>
  </outline>
</glyph>
<glyph name="emptyset" format="1">
  <advance width="594"/>
  <unicode hex="2205"/>
  <outline>
    <contour>
      <point x="445" y="-11"/>
      <point x="563" y="109"/>
      <point x="563" y="279" type="curve" smooth="yes"/>
      <point x="563" y="432"/>
      <point x="467" y="534"/>
      <point x="326" y="534" type="curve" smooth="yes"/>
      <point x="153" y="534"/>
      <point x="32" y="417"/>
      <point x="32" y="251" type="curve" smooth="yes"/>
      <point x="32" y="94"/>
      <point x="131" y="-11"/>
      <point x="278" y="-11" type="curve" smooth="yes"/>
    </contour>
    <contour>
      <point x="184" y="86"/>
      <point x="117" y="153"/>
      <point x="117" y="254" type="curve" smooth="yes"/>
      <point x="117" y="361"/>
      <point x="199" y="436"/>
      <point x="317" y="436" type="curve" smooth="yes"/>
      <point x="413" y="436"/>
      <point x="478" y="370"/>
      <point x="478" y="272" type="curve" smooth="yes"/>
      <point x="478" y="162"/>
      <point x="398" y="86"/>
      <point x="283" y="86" type="curve" smooth="yes"/>
    </contour>
    <component base="fraction" xOffset="265" yOffset="11"/>
  </outline>
</glyph>
<glyph name="minus" format="1">
  <advance width="533"/>
  <unicode hex="2212"/>
  <outline>
    <contour>
      <point x="136" y="226"/>
      <point x="201" y="227"/>
      <point x="267" y="227" type="curve" smooth="yes"/>
      <point x="333" y="227"/>
      <point x="398" y="226"/>
      <point x="464" y="223" type="curve"/>
      <point x="466" y="237"/>
      <point x="468" y="253"/>
      <point x="468" y="266" type="curve" smooth="yes"/>
      <point x="468" y="280"/>
      <point x="466" y="295"/>
      <point x="464" y="308" type="curve"/>
      <point x="398" y="305"/>
      <point x="333" y="304"/>
      <point x="267" y="304" type="curve" smooth="yes"/>
      <point x="201" y="304"/>
      <point x="136" y="305"/>
      <point x="70" y="308" type="curve"/>
      <point x="67" y="294"/>
      <point x="65" y="278"/>
      <point x="65" y="265" type="curve" smooth="yes"/>
      <point x="65" y="251"/>
      <point x="67" y="236"/>
      <point x="70" y="223" type="curve"/>
    </contour>
  </outline>
</glyph>
<glyph name="infinity" format="1">
  <advance width="626"/>
  <unicode hex="221E"/>
  <outline>
    <contour>
      <point x="227" y="54"/>
      <point x="271" y="91"/>
      <point x="300" y="154" type="curve"/>
      <point x="325" y="99"/>
      <point x="361" y="54"/>
      <point x="433" y="54" type="curve" smooth="yes"/>
      <point x="520" y="54"/>
      <point x="581" y="148"/>
      <point x="581" y="282" type="curve" smooth="yes"/>
      <point x="581" y="393"/>
      <point x="529" y="468"/>
      <point x="450" y="468" type="curve" smooth="yes"/>
      <point x="401" y="468"/>
      <point x="359" y="433"/>
      <point x="330" y="375" type="curve"/>
      <point x="303" y="427"/>
      <point x="264" y="468"/>
      <point x="193" y="468" type="curve" smooth="yes"/>
      <point x="106" y="468"/>
      <point x="45" y="374"/>
      <point x="45" y="240" type="curve" smooth="yes"/>
      <point x="45" y="129"/>
      <point x="97" y="54"/>
      <point x="176" y="54" type="curve" smooth="yes"/>
    </contour>
    <contour>
      <point x="141" y="163"/>
      <point x="110" y="192"/>
      <point x="100" y="241" type="curve"/>
      <point x="100" y="309"/>
      <point x="128" y="359"/>
      <point x="174" y="359" type="curve" smooth="yes"/>
      <point x="231" y="359"/>
      <point x="250" y="291"/>
      <point x="275" y="219" type="curve"/>
      <point x="253" y="183"/>
      <point x="223" y="163"/>
      <point x="185" y="163" type="curve" smooth="yes"/>
    </contour>
    <contour>
      <point x="400" y="163"/>
      <point x="383" y="236"/>
      <point x="357" y="311" type="curve"/>
      <point x="378" y="341"/>
      <point x="407" y="359"/>
      <point x="441" y="359" type="curve" smooth="yes"/>
      <point x="486" y="359"/>
      <point x="516" y="330"/>
      <point x="526" y="281" type="curve"/>
      <point x="526" y="213"/>
      <point x="498" y="163"/>
      <point x="452" y="163" type="curve" smooth="yes"/>
    </contour>
  </outline>
</glyph>
<glyph name="lozenge" format="1">
  <advance width="499"/>
  <unicode hex="25CA"/>
  <outline>
    <contour>
      <point x="271" y="-8"/>
      <point x="292" y="-5"/>
      <point x="312" y="0" type="curve"/>
      <point x="353" y="88"/>
      <point x="403" y="176"/>
      <point x="463" y="264" type="curve"/>
      <point x="403" y="352"/>
      <point x="353" y="439"/>
      <point x="312" y="527" type="curve"/>
      <point x="292" y="532"/>
      <point x="271" y="535"/>
      <point x="250" y="535" type="curve" smooth="yes"/>
      <point x="229" y="535"/>
      <point x="209" y="532"/>
      <point x="188" y="527" type="curve"/>
      <point x="147" y="439"/>
      <point x="97" y="352"/>
      <point x="37" y="264" type="curve"/>
      <point x="97" y="176"/>
      <point x="147" y="88"/>
      <point x="188" y="0" type="curve"/>
      <point x="209" y="-5"/>
      <point x="229" y="-8"/>
      <point x="250" y="-8" type="curve" smooth="yes"/>
    </contour>
    <contour>
      <point x="145" y="264" type="line"/>
      <point x="250" y="447" type="line"/>
      <point x="355" y="264" type="line"/>
      <point x="250" y="80" type="line"/>
    </contour>
  </outline>
</glyph>
<glyph name="fl" format="1">
  <advance width="526"/>
  <unicode hex="FB02"/>
  <outline>
    <contour>
      <point x="170" y="-81"/>
      <point x="200" y="-33"/>
      <point x="200" y="63" type="curve" smooth="yes"/>
      <point x="200" y="109"/>
      <point x="193" y="181"/>
      <point x="193" y="279" type="curve" smooth="yes"/>
      <point x="193" y="336" type="line"/>
      <point x="235" y="335"/>
      <point x="265" y="331"/>
      <point x="288" y="324" type="curve"/>
      <point x="300" y="351"/>
      <point x="305" y="373"/>
      <point x="305" y="404" type="curve"/>
      <point x="281" y="399"/>
      <point x="242" y="397"/>
      <point x="195" y="396" type="curve"/>
      <point x="198" y="478"/>
      <point x="207" y="507"/>
      <point x="228" y="523" type="curve"/>
      <point x="263" y="521"/>
      <point x="300" y="507"/>
      <point x="344" y="483" type="curve"/>
      <point x="351" y="438"/>
      <point x="355" y="377"/>
      <point x="355" y="297" type="curve" smooth="yes"/>
      <point x="355" y="208"/>
      <point x="351" y="144"/>
      <point x="351" y="73" type="curve" smooth="yes"/>
      <point x="351" y="10"/>
      <point x="369" y="-9"/>
      <point x="414" y="-9" type="curve" smooth="yes"/>
      <point x="434" y="-9"/>
      <point x="467" y="0"/>
      <point x="493" y="27" type="curve"/>
      <point x="462" y="61"/>
      <point x="454" y="84"/>
      <point x="454" y="192" type="curve" smooth="yes"/>
      <point x="454" y="356"/>
      <point x="459" y="485"/>
      <point x="466" y="547" type="curve"/>
      <point x="407" y="571"/>
      <point x="347" y="585"/>
      <point x="275" y="585" type="curve" smooth="yes"/>
      <point x="163" y="585"/>
      <point x="102" y="514"/>
      <point x="86" y="406" type="curve"/>
      <point x="66" y="392"/>
      <point x="46" y="380"/>
      <point x="23" y="368" type="curve"/>
      <point x="23" y="341"/>
      <point x="33" y="334"/>
      <point x="86" y="333" type="curve"/>
      <point x="101" y="-20"/>
      <point x="96" y="-69"/>
      <point x="43" y="-140" type="curve"/>
      <point x="65" y="-159" type="line"/>
    </contour>
  </outline>
</glyph>
<glyph name="caroncomb.alt" format="1">
  <advance width="168"/>
  <outline>
    <component base="commaaccentcomb" xOffset="-2" yOffset="673"/>
    <contour>
      <point x="84" y="407" type="move" name="_topright"/>
    </contour>
  </outline>
</glyph>
<glyph name="eight.dnom" format="1">
  <advance width="353"/>
  <outline>
    <contour>
      <point x="249" y="-6"/>
      <point x="308" y="27"/>
      <point x="308" y="80" type="curve" smooth="yes"/>
      <point x="308" y="113"/>
      <point x="285" y="131"/>
      <point x="256" y="143" type="curve"/>
      <point x="284" y="160"/>
      <point x="299" y="182"/>
      <point x="299" y="207" type="curve" smooth="yes"/>
      <point x="299" y="249"/>
      <point x="255" y="277"/>
      <point x="189" y="277" type="curve" smooth="yes"/>
      <point x="111" y="277"/>
      <point x="55" y="243"/>
      <point x="55" y="194" type="curve" smooth="yes"/>
      <point x="55" y="165"/>
      <point x="72" y="147"/>
      <point x="95" y="134" type="curve"/>
      <point x="64" y="118"/>
      <point x="46" y="95"/>
      <point x="46" y="68" type="curve" smooth="yes"/>
      <point x="46" y="24"/>
      <point x="96" y="-6"/>
      <point x="168" y="-6" type="curve" smooth="yes"/>
    </contour>
    <contour>
      <point x="145" y="38"/>
      <point x="125" y="53"/>
      <point x="125" y="75" type="curve" smooth="yes"/>
      <point x="125" y="90"/>
      <point x="133" y="103"/>
      <point x="146" y="113" type="curve"/>
      <point x="189" y="100"/>
      <point x="229" y="91"/>
      <point x="229" y="66" type="curve" smooth="yes"/>
      <point x="229" y="50"/>
      <point x="210" y="38"/>
      <point x="175" y="38" type="curve" smooth="yes"/>
    </contour>
    <contour>
      <point x="164" y="170"/>
      <point x="130" y="179"/>
      <point x="130" y="204" type="curve" smooth="yes"/>
      <point x="130" y="224"/>
      <point x="152" y="236"/>
      <point x="183" y="236" type="curve"/>
      <point x="209" y="231"/>
      <point x="224" y="219"/>
      <point x="224" y="201" type="curve" smooth="yes"/>
      <point x="224" y="184"/>
      <point x="217" y="170"/>
      <point x="203" y="160" type="curve"/>
    </contour>
  </outline>
</glyph>
<glyph name="f_f" format="1">
  <advance width="557"/>
  <outline>
    <contour>
      <point x="170" y="-81"/>
      <point x="200" y="-33"/>
      <point x="200" y="63" type="curve" smooth="yes"/>
      <point x="200" y="109"/>
      <point x="193" y="181"/>
      <point x="193" y="279" type="curve" smooth="yes"/>
      <point x="193" y="336" type="line"/>
      <point x="350" y="336" type="line"/>
      <point x="365" y="-20"/>
      <point x="360" y="-69"/>
      <point x="307" y="-140" type="curve"/>
      <point x="329" y="-159" type="line"/>
      <point x="434" y="-81"/>
      <point x="464" y="-33"/>
      <point x="464" y="63" type="curve" smooth="yes"/>
      <point x="464" y="109"/>
      <point x="457" y="181"/>
      <point x="457" y="279" type="curve" smooth="yes"/>
      <point x="457" y="336" type="line"/>
      <point x="496" y="335"/>
      <point x="523" y="331"/>
      <point x="546" y="324" type="curve"/>
      <point x="558" y="351"/>
      <point x="563" y="373"/>
      <point x="563" y="404" type="curve"/>
      <point x="540" y="400"/>
      <point x="504" y="397"/>
      <point x="459" y="396" type="curve"/>
      <point x="462" y="478"/>
      <point x="471" y="507"/>
      <point x="492" y="523" type="curve"/>
      <point x="520" y="520"/>
      <point x="559" y="499"/>
      <point x="606" y="462" type="curve"/>
      <point x="621" y="488"/>
      <point x="635" y="541"/>
      <point x="635" y="568" type="curve"/>
      <point x="605" y="579"/>
      <point x="570" y="585"/>
      <point x="532" y="585" type="curve" smooth="yes"/>
      <point x="492" y="585"/>
      <point x="455" y="572"/>
      <point x="426" y="549" type="curve"/>
      <point x="379" y="572"/>
      <point x="325" y="585"/>
      <point x="268" y="585" type="curve" smooth="yes"/>
      <point x="173" y="585"/>
      <point x="103" y="514"/>
      <point x="86" y="406" type="curve"/>
      <point x="66" y="392"/>
      <point x="46" y="380"/>
      <point x="23" y="368" type="curve"/>
      <point x="23" y="341"/>
      <point x="33" y="334"/>
      <point x="86" y="333" type="curve"/>
      <point x="101" y="-20"/>
      <point x="96" y="-69"/>
      <point x="43" y="-140" type="curve"/>
      <point x="65" y="-159" type="line"/>
    </contour>
    <contour>
      <point x="201" y="467"/>
      <point x="214" y="492"/>
      <point x="241" y="506" type="curve"/>
      <point x="387" y="506" type="line"/>
      <point x="367" y="477"/>
      <point x="354" y="439"/>
      <point x="349" y="397" type="curve"/>
      <point x="196" y="397" type="line"/>
    </contour>
  </outline>
</glyph>
<glyph name="f_j" format="1">
  <advance width="526"/>
  <outline>
    <contour>
      <point x="409" y="-111"/>
      <point x="472" y="-63"/>
      <point x="472" y="63" type="curve" smooth="yes"/>
      <point x="472" y="110"/>
      <point x="469" y="129"/>
      <point x="469" y="172" type="curve" smooth="yes"/>
      <point x="469" y="257"/>
      <point x="471" y="374"/>
      <point x="476" y="417" type="curve"/>
      <point x="430" y="417"/>
      <point x="391" y="413"/>
      <point x="346" y="397" type="curve"/>
      <point x="195" y="397" type="line"/>
      <point x="198" y="478"/>
      <point x="207" y="507"/>
      <point x="228" y="523" type="curve"/>
      <point x="266" y="520"/>
      <point x="317" y="497"/>
      <point x="378" y="455" type="curve"/>
      <point x="395" y="481"/>
      <point x="411" y="535"/>
      <point x="411" y="561" type="curve"/>
      <point x="369" y="576"/>
      <point x="321" y="585"/>
      <point x="268" y="585" type="curve" smooth="yes"/>
      <point x="173" y="585"/>
      <point x="103" y="514"/>
      <point x="86" y="406" type="curve"/>
      <point x="66" y="392"/>
      <point x="46" y="380"/>
      <point x="23" y="368" type="curve"/>
      <point x="23" y="341"/>
      <point x="33" y="334"/>
      <point x="86" y="333" type="curve"/>
      <point x="101" y="-20"/>
      <point x="96" y="-69"/>
      <point x="43" y="-140" type="curve"/>
      <point x="65" y="-159" type="line"/>
      <point x="170" y="-81"/>
      <point x="200" y="-33"/>
      <point x="200" y="63" type="curve" smooth="yes"/>
      <point x="200" y="109"/>
      <point x="193" y="181"/>
      <point x="193" y="279" type="curve" smooth="yes"/>
      <point x="193" y="336" type="line"/>
      <point x="362" y="336" type="line"/>
      <point x="366" y="295"/>
      <point x="367" y="228"/>
      <point x="367" y="106" type="curve" smooth="yes"/>
      <point x="367" y="-50"/>
      <point x="334" y="-104"/>
      <point x="268" y="-164" type="curve"/>
      <point x="282" y="-189" type="line"/>
    </contour>
  </outline>
</glyph>
<glyph name="one.dnom" format="1">
  <advance width="354"/>
  <outline>
    <contour>
      <point x="216" y="-3"/>
      <point x="231" y="-2"/>
      <point x="245" y="0" type="curve"/>
      <point x="240" y="52"/>
      <point x="238" y="104"/>
      <point x="238" y="157" type="curve" smooth="yes"/>
      <point x="238" y="196"/>
      <point x="239" y="235"/>
      <point x="242" y="274" type="curve"/>
      <point x="226" y="276"/>
      <point x="211" y="277"/>
      <point x="198" y="277" type="curve"/>
      <point x="179" y="259"/>
      <point x="113" y="220"/>
      <point x="75" y="202" type="curve"/>
      <point x="83" y="185"/>
      <point x="90" y="169"/>
      <point x="103" y="153" type="curve"/>
      <point x="164" y="188" type="line"/>
      <point x="164" y="148" type="line" smooth="yes"/>
      <point x="164" y="102"/>
      <point x="161" y="40"/>
      <point x="158" y="0" type="curve"/>
      <point x="175" y="-2"/>
      <point x="190" y="-3"/>
      <point x="203" y="-3" type="curve" smooth="yes"/>
    </contour>
  </outline>
</glyph>
<glyph name="seven.dnom" format="1">
  <advance width="353"/>
  <outline>
    <contour>
      <point x="281" y="187" type="line" smooth="yes"/>
      <point x="294" y="210"/>
      <point x="299" y="229"/>
      <point x="299" y="246" type="curve" smooth="yes"/>
      <point x="299" y="257"/>
      <point x="294" y="273"/>
      <point x="281" y="284" type="curve"/>
      <point x="263" y="274"/>
      <point x="233" y="268"/>
      <point x="176" y="268" type="curve" smooth="yes"/>
      <point x="123" y="268"/>
      <point x="77" y="270"/>
      <point x="56" y="274" type="curve"/>
      <point x="56" y="248"/>
      <point x="63" y="216"/>
      <point x="74" y="194" type="curve"/>
      <point x="87" y="201"/>
      <point x="104" y="203"/>
      <point x="131" y="203" type="curve" smooth="yes"/>
      <point x="227" y="203" type="line"/>
      <point x="162" y="102"/>
      <point x="107" y="40"/>
      <point x="78" y="13" type="curve"/>
      <point x="107" y="1"/>
      <point x="136" y="-3"/>
      <point x="172" y="-3" type="curve"/>
    </contour>
  </outline>
</glyph>
